<?xml version="1.0" encoding="UTF-8"?><svg id="_レイヤー_2" xmlns="http://www.w3.org/2000/svg" viewBox="0 0 1758.49 1757.99"><defs><style>.cls-1{fill:#21212f;stroke-width:0px;}</style></defs><g id="Layer_1"><path class="cls-1" d="m981.32,1400.43h-137.04c-70.27,0-174.39-4.1-266.78-39.55-52.25-20.05-94.36-48.01-125.13-83.11-36.43-41.54-57.56-93.63-62.81-154.83-2.45-28.54-.87-56.52,4.7-83.15,5.73-27.43,15.58-52.83,29.25-75.5,29.63-49.1,76.09-83.27,134.37-98.82,10.58-2.82,17.22-7.26,19.74-13.19,6.47-15.24-9.6-44.14-14.87-53.64l-2.22-3.99c-7.87-14.13-28.76-51.67-37.96-69.08-.36-.67-.66-1.37-.9-2.09-6.95-20.59-11.4-42.35-13.23-64.67-.09-1.05-.17-2.14-.25-3.23-.48-6.81-.72-13.69-.72-20.45,0-37.48,7.6-73.85,22.59-108.09,14.46-33.03,35.15-62.68,61.5-88.13,26.31-25.42,56.95-45.37,91.05-59.31,35.29-14.42,72.76-21.73,111.37-21.73s76.08,7.31,111.37,21.73c34.1,13.94,64.74,33.89,91.05,59.31,26.35,25.45,47.04,55.11,61.5,88.13,14.99,34.24,22.59,70.6,22.59,108.09,0,59.52-19.2,116.25-55.52,164.06-9.27,12.21-10.71,26.75-3.95,39.91,7.51,14.61,22.99,23.39,40.37,22.88,105.21-3,176.45-19.27,217.69-32.4,44.57-14.19,64.59-27.83,64.79-27.97,3.64-2.56,8.25-3.24,12.49-1.88,4.24,1.37,7.56,4.67,9.01,8.88,31.71,91.99,44.65,175.99,38.46,249.69-5.5,65.44-26.08,123.57-61.16,172.77-22.29,31.26-50.58,59.09-84.1,82.71-29.13,20.53-62.3,37.97-98.58,51.84-56.99,21.79-123.78,34.79-178.65,34.79Zm-433.17-687.07c9.32,17.56,29.46,53.73,37.13,67.52l2.23,4c13.07,23.51,26.71,53.68,16.19,78.47-6.1,14.38-19.06,24.3-38.52,29.49-51.05,13.62-91.65,43.38-117.42,86.08-12.03,19.93-20.7,42.36-25.78,66.66-5,23.93-6.42,49.14-4.21,74.93,4.72,55.04,23.53,101.67,55.88,138.57,27.72,31.61,66.06,56.96,113.98,75.34,88,33.77,188.61,37.67,256.63,37.67h137.04c51.6,0,114.61-12.31,168.54-32.93,34.08-13.03,65.16-29.36,92.37-48.54,30.9-21.78,56.92-47.35,77.35-76,32.09-45,50.93-98.4,56-158.69,5.5-65.43-5.12-139.98-31.58-221.82-33.26,17-120.05,51.58-281.81,56.19-28.41.81-53.84-13.85-66.38-38.25-11.77-22.91-9.31-49.08,6.59-70,32.55-42.84,49.75-93.65,49.75-146.92,0-66.4-26.79-128.85-75.45-175.85-48.78-47.13-113.68-73.08-182.73-73.08s-133.95,25.96-182.74,73.08c-48.65,47-75.45,109.45-75.45,175.85,0,6.1.22,12.31.65,18.46.07.94.14,1.9.22,2.86,1.62,19.68,5.48,38.8,11.49,56.9Z"/><path class="cls-1" d="m535.08,718.96c-8.62-16.34-12.54-35.7-12.54-54.57v-10s-.08.07-.24.19c-3.79,2.96-52.69,39.6-137.74,30.79-5.48-.57-9.83,3.16-10.31,7.6-.15,1.45.09,2.96.86,4.42,14.1,27.05,53.47,83.6,136.38,83.6,21.28,0,38.67-1.34,52.87-3.51-12.41-17.88-22.21-37.58-29.27-58.53Zm-107.92,4.01c-.78,1.62-2.68,2.35-4.33,1.74-1.81-.67-3.6-1.39-5.35-2.21-1.72-.88-3.46-1.72-5.12-2.72-3.35-1.94-6.61-4.04-9.68-6.4-3.04-2.4-5.95-4.97-8.6-7.8-2.62-2.88-5.04-5.87-6.72-9.58-.29-.63,0-1.37.62-1.66.52-.24,1.12-.09,1.47.33l.09.11c2.26,2.65,4.93,5.23,7.65,7.55,2.74,2.35,5.7,4.44,8.76,6.35,3.06,1.91,6.23,3.65,9.5,5.18,1.62.79,3.31,1.44,4.94,2.22,1.67.69,3.34,1.38,4.97,2.17l.18.09c1.72.83,2.44,2.91,1.61,4.63Zm17.95,7.46c-1.23,2.47-4.76,3.44-7.88,2.16-3.12-1.27-4.64-4.31-3.41-6.78,1.23-2.47,4.76-3.44,7.88-2.16,3.12,1.27,4.64,4.31,3.41,6.78Z"/><ellipse class="cls-1" cx="631.48" cy="561.42" rx="48.28" ry="30.07" transform="translate(-74.56 1025.59) rotate(-74.96)"/><path class="cls-1" d="m631.74,545.03c-1.72,6.39-6.33,10.69-10.31,9.63-3.98-1.07-5.81-7.11-4.09-13.5,1.72-6.39,6.33-10.69,10.31-9.63,3.98,1.07,5.81,7.11,4.09,13.5Z"/><path class="cls-1" d="m941.86,473.05c-3.82,18.01-63.63,4.91-126.84-8.5-63.21-13.42-106.76-29.71-102.93-47.72,3.82-18.01,64.8-30.03,128.02-16.61,63.21,13.42,105.58,54.82,101.76,72.83Z"/><path class="cls-1" d="m512.01,994.37c.13.27.13.63.14,1,.03.37,0,.69-.02,1.06-.02.74-.09,1.39-.18,2.08-.12,1.41-.41,2.67-.69,3.97-.6,2.53-1.44,4.91-2.4,7.19-1,2.25-2.18,4.4-3.27,6.6-1.07,2.21-2.16,4.41-3.15,6.67-4.06,8.95-7.48,18.17-10.11,27.51-5.4,18.68-7.65,37.73-7.57,56.28.13,18.6,2.87,36.8,7.79,54.67,2.52,8.95,5.8,17.67,9.09,26.6.33,1.15.63,2.32.89,3.52.3,1.18.61,2.37.86,3.59.51,2.44.84,4.99.98,7.69.05.67.04,1.37.07,2.06.04.68.12,1.35.12,2.06.04,1.4.05,2.83-.02,4.32-.06,1.49-.18,3.03-.42,4.66-.17,1.59-.46,3.27-.9,5.07l-.47,1.93c-2.17,8.85-11.1,14.27-19.95,12.11-.34-.08-.71-.19-1.04-.29-14.09-4.44-23.1-13.37-29.51-23.68-1.57-2.6-2.95-5.31-4.23-8.05-1.23-2.77-2.34-5.62-3.51-8.43-2.46-5.57-4.18-11.48-6.14-17.28-7.09-23.51-9.8-48.64-7.55-73.11,1.13-12.23,3.39-24.28,6.59-35.95,3.25-11.67,7.39-22.97,12.35-33.79,4.93-10.84,10.63-21.21,16.96-31.14,1.56-2.49,3.22-4.93,4.88-7.36,1.72-2.4,3.31-4.87,5.3-7.1,1.97-2.24,4.17-4.32,6.71-6.16,1.28-.9,2.6-1.8,4.1-2.54.71-.39,1.48-.79,2.29-1.12.39-.16.79-.37,1.24-.52.43-.15.85-.32,1.42-.56,5.34-2.27,11.49.07,13.98,5.24l5.4,11.24Z"/><path class="cls-1" d="m1097.88,1130.78c-1.42,5.88-4.53,11.28-8.17,15.53-3.63,4.32-7.75,7.67-11.9,10.44-4.16,2.72-8.4,4.91-12.65,6.66-8.48,3.54-16.93,5.62-25.27,6.87-8.36,1.21-16.58,1.89-24.74,2.24l-6.05.21c-1.91.07-4.06.07-6.18.09-4.25.02-8.48-.12-12.7-.38-4.35-.26-8.69-.68-13.01-1.25.05,1.02.09,2.05.07,3.12-.05,3.85-.66,8.1-2.13,12.32-1.44,4.22-3.76,8.17-6.42,11.38-2.67,3.23-5.62,5.76-8.53,7.81-5.85,3.99-11.52,6.23-16.9,7.91-5.38,1.61-10.53,2.6-15.56,3.3-10.06,1.27-19.62,1.35-29.02.99-9.37-.42-18.54-1.35-27.6-2.69-9.04-1.37-17.95-3.09-26.77-5.1-17.64-3.96-34.83-9.3-51.64-15.49-8.41-3.09-16.69-6.56-24.86-10.22-8.17-3.68-16.24-7.58-24.11-11.87-3.94-2.13-7.84-4.35-11.69-6.63-3.82-2.36-7.68-4.61-11.43-7.06-3.71-2.5-7.48-4.91-11.08-7.55l-5.43-3.9-5.33-4.04c-14.14-10.82-27.22-22.9-39.33-35.72-11.97-12.94-22.95-26.7-32.59-41.23,24.79,24.53,51.94,45.99,81.31,63.07l5.48,3.21,5.59,3.02c3.7,2.08,7.51,3.9,11.28,5.81,3.76,1.91,7.62,3.63,11.41,5.43,3.83,1.73,7.7,3.4,11.61,4.98,15.59,6.38,31.59,11.8,47.79,16.29,16.2,4.54,32.65,8.07,49.09,10.74,8.22,1.3,16.46,2.32,24.67,3.02,8.17.69,16.32,1.14,24.3,1.06,7.96-.09,15.8-.64,22.93-1.93,3.54-.62,6.9-1.46,9.8-2.45,2.88-1.01,5.26-2.26,6.52-3.24.61-.5.9-.88.97-1.04.05-.14-.03-.05-.1.02,5.67-9.8-3.54-38.93-9.63-55.68l22.67,7.03c13.03,4.02,26.51,6.31,40.02,7.11,3.38.17,6.77.26,10.13.23,1.7-.03,3.35-.03,5.24-.12l5.36-.23c7.06-.35,14.02-.99,20.73-2.01,6.71-.99,13.22-2.03,19.2-3.3,5.98-1.23,11.4-2.76,15.4-4.39,2.01-.83,3.66-1.61,5.22-2.76.33-.29.8-.61,1.16-.95.38-.33.73-.71,1.09-1.14.69-.87,1.34-1.98,1.89-3.28,1.11-2.62,1.77-5.98,2.05-9.71.28-3.73.19-7.77.14-12.18,3.85,2.12,7.25,4.87,10.23,8.27,3,3.38,5.48,7.49,7.09,12.47.76,2.5,1.27,5.22,1.35,8.12.14,2.9-.28,5.9-.99,8.81Z"/><path class="cls-1" d="m1136.43,182.38l-24.96-6.83c-4.67-1.28-7.56-3.98-8.67-8.12l-14.21-47.95c-.61-1.88-1.44-3.36-2.5-4.45-1.06-1.08-2.82-1.96-5.27-2.63l-9.4-2.57-13.94,50.94-27.63-7.56,36.57-133.66,42,11.49c9.33,2.55,17.05,5.71,23.16,9.46,6.1,3.75,10.8,7.92,14.1,12.52,3.3,4.6,5.27,9.55,5.94,14.84.66,5.3.21,10.8-1.35,16.51-1.21,4.42-2.99,8.44-5.33,12.06-2.34,3.62-5.16,6.73-8.44,9.32-3.29,2.6-7.02,4.68-11.21,6.24-4.19,1.56-8.74,2.5-13.64,2.8,1.51,1.47,2.85,3.11,4,4.91,1.16,1.8,2.09,3.82,2.8,6.06l17.98,56.6Zm-45.5-88.09c4.48,1.23,8.51,1.72,12.07,1.47,3.57-.25,6.67-1.08,9.3-2.5,2.63-1.42,4.81-3.35,6.53-5.79,1.72-2.43,3.02-5.25,3.89-8.44,1.73-6.32.97-11.81-2.28-16.46-3.25-4.65-9.17-8.15-17.77-10.51l-14.37-3.93-11.57,42.28,14.19,3.88Z"/><path class="cls-1" d="m1220.79,196.88c4.16,2.08,8.23,3.25,12.24,3.51,4,.26,7.78-.33,11.34-1.75,3.56-1.42,6.85-3.66,9.87-6.7,3.02-3.04,5.67-6.85,7.95-11.4l36.92-73.79,25.62,12.82-36.92,73.79c-3.76,7.52-8.43,13.81-13.99,18.9-5.57,5.08-11.74,8.77-18.52,11.08-6.78,2.31-14.02,3.13-21.74,2.47-7.72-.66-15.62-3.01-23.7-7.05-8.08-4.05-14.72-8.97-19.9-14.76-5.18-5.8-8.88-12.1-11.1-18.9-2.22-6.81-2.97-13.96-2.24-21.46.73-7.5,2.97-15.01,6.73-22.53l36.92-73.79,25.62,12.82-36.92,73.79c-2.28,4.56-3.73,8.95-4.36,13.2-.63,4.24-.44,8.21.55,11.92,1,3.7,2.79,7.08,5.4,10.12,2.6,3.05,6.01,5.62,10.23,7.73Z"/><path class="cls-1" d="m1420.16,186.76c7.33,5.72,13.05,11.3,17.17,16.73,4.12,5.44,6.83,10.7,8.14,15.8,1.31,5.1,1.31,10.04,0,14.83-1.31,4.79-3.72,9.42-7.2,13.88-1.96,2.51-4.2,4.63-6.73,6.38-2.53,1.74-5.35,3.03-8.47,3.87-3.12.84-6.53,1.15-10.23.92-3.7-.22-7.66-1.05-11.87-2.48,6.06,7.55,9.32,14.7,9.79,21.45.47,6.75-1.76,13.28-6.7,19.6-3.6,4.62-7.85,8.21-12.72,10.79-4.88,2.57-10.16,3.99-15.84,4.23-5.69.25-11.66-.76-17.93-3.03-6.27-2.27-12.64-5.93-19.11-10.98l-42.31-33.02,85.25-109.24,38.77,30.26Zm-68.58,94.39c3.61,2.82,6.93,4.7,9.95,5.65,3.02.94,5.8,1.24,8.34.88,2.54-.36,4.82-1.26,6.84-2.72,2.02-1.45,3.82-3.18,5.38-5.19,1.72-2.21,2.94-4.45,3.66-6.71.72-2.27.83-4.58.33-6.95-.5-2.37-1.66-4.78-3.48-7.26-1.83-2.47-4.44-5.04-7.86-7.71l-19.2-14.98-23.33,29.89,19.35,15.1Zm39-89.86l-23.03,29.51,14.83,11.58c3.16,2.47,6.18,4.4,9.05,5.79,2.87,1.39,5.58,2.16,8.14,2.3,2.56.14,5.01-.39,7.36-1.59,2.35-1.2,4.56-3.12,6.63-5.79,2.12-2.71,3.55-5.3,4.31-7.78.76-2.48.84-4.88.23-7.21-.61-2.33-1.86-4.66-3.75-6.99-1.9-2.33-4.43-4.73-7.59-7.19l-16.19-12.63Z"/><path class="cls-1" d="m1540.41,300.35c6.13,6.99,10.71,13.53,13.74,19.64,3.03,6.11,4.71,11.79,5.05,17.04.33,5.25-.59,10.11-2.78,14.57-2.18,4.46-5.41,8.56-9.67,12.3-2.39,2.1-5,3.77-7.8,5.01-2.81,1.24-5.83,1.98-9.04,2.22-3.22.24-6.63-.09-10.22-1s-7.33-2.46-11.2-4.65c4.54,8.55,6.41,16.19,5.61,22.9-.8,6.71-4.21,12.72-10.24,18.01-4.4,3.86-9.24,6.61-14.51,8.22-5.27,1.62-10.72,2.02-16.35,1.2-5.63-.82-11.32-2.92-17.05-6.32-5.74-3.4-11.31-8.18-16.73-14.35l-35.41-40.34,104.14-91.41,32.44,36.96Zm-84.99,79.93c3.02,3.45,5.93,5.91,8.72,7.4,2.79,1.49,5.47,2.3,8.03,2.42,2.56.12,4.97-.34,7.23-1.39,2.26-1.05,4.34-2.41,6.26-4.09,2.1-1.85,3.72-3.82,4.85-5.91,1.13-2.09,1.67-4.35,1.62-6.76-.05-2.42-.73-5.01-2.06-7.78-1.33-2.77-3.42-5.78-6.28-9.04l-16.06-18.3-28.49,25.01,16.19,18.45Zm55.08-81l-28.14,24.69,12.41,14.14c2.65,3.01,5.25,5.47,7.81,7.38,2.56,1.9,5.08,3.16,7.57,3.77,2.49.61,4.99.55,7.52-.19,2.53-.74,5.06-2.22,7.6-4.45,2.58-2.27,4.48-4.55,5.69-6.84,1.21-2.29,1.73-4.63,1.58-7.04-.16-2.4-.95-4.92-2.38-7.56-1.43-2.64-3.47-5.47-6.11-8.48l-13.54-15.43Z"/><path class="cls-1" d="m1607.06,427.59l-30.49,18.41,23.89,39.57-18.56,11.21-23.89-39.57-31.15,18.81,30.7,50.85-19.21,11.6-45.61-75.54,118.62-71.63,45.61,75.54-19.21,11.6-30.7-50.85Z"/><path class="cls-1" d="m1593.25,672.95l-9.28-24.16c-1.73-4.52-1.27-8.45,1.41-11.79l30.23-39.84c1.16-1.6,1.86-3.15,2.1-4.64.25-1.49-.09-3.43-1-5.8l-3.49-9.09-49.3,18.93-10.27-26.75,129.36-49.67,15.61,40.65c3.47,9.03,5.5,17.12,6.09,24.26.59,7.14.01,13.4-1.74,18.78-1.75,5.38-4.57,9.9-8.44,13.57-3.88,3.67-8.58,6.57-14.11,8.69-4.28,1.64-8.57,2.59-12.87,2.84-4.3.25-8.47-.17-12.51-1.28-4.04-1.11-7.93-2.89-11.67-5.34-3.74-2.45-7.18-5.56-10.33-9.33-.29,2.09-.82,4.13-1.58,6.13-.77,2-1.84,3.95-3.23,5.84l-34.97,48Zm44.05-88.83c1.67,4.34,3.65,7.87,5.96,10.6,2.31,2.73,4.82,4.73,7.53,6.01,2.71,1.28,5.55,1.89,8.53,1.84,2.98-.05,6.02-.67,9.11-1.86,6.12-2.35,10.1-6.21,11.92-11.58,1.83-5.37,1.14-12.22-2.05-20.54l-5.34-13.91-40.92,15.71,5.27,13.73Z"/><path class="cls-1" d="m1691.57,877.24c-10.09.84-19.51-.09-28.26-2.78-8.75-2.69-16.43-6.88-23.04-12.56-6.61-5.68-11.98-12.73-16.13-21.13-4.15-8.41-6.66-17.91-7.54-28.51l-4.41-53.11,138.1-11.47,4.41,53.11c.88,10.6-.03,20.38-2.74,29.36-2.7,8.98-6.86,16.81-12.47,23.51-5.61,6.69-12.49,12.09-20.65,16.19-8.16,4.09-17.25,6.56-27.27,7.39Zm-2.43-29.31c7.23-.6,13.66-2.09,19.27-4.48,5.61-2.38,10.27-5.52,13.98-9.4,3.7-3.89,6.42-8.47,8.15-13.76,1.73-5.29,2.33-11.17,1.79-17.64l-2.02-24.36-93.36,7.75,2.02,24.36c.54,6.47,2.08,12.17,4.63,17.1,2.55,4.93,5.99,9,10.31,12.22,4.32,3.22,9.45,5.54,15.38,6.96,5.93,1.42,12.55,1.83,19.84,1.23Z"/><path class="cls-1" d="m1636.42,975.8c-.58,4.61-.33,8.85.75,12.71,1.08,3.86,2.89,7.23,5.41,10.12,2.52,2.88,5.72,5.25,9.6,7.08,3.87,1.84,8.34,3.08,13.39,3.72l81.86,10.35-3.59,28.42-81.86-10.35c-8.34-1.05-15.83-3.37-22.47-6.93-6.64-3.57-12.17-8.17-16.59-13.79-4.42-5.63-7.6-12.19-9.54-19.69-1.94-7.5-2.34-15.73-1.21-24.7,1.13-8.97,3.58-16.86,7.33-23.67,3.75-6.81,8.46-12.39,14.15-16.74,5.68-4.35,12.18-7.43,19.5-9.23,7.32-1.8,15.15-2.18,23.48-1.12l81.86,10.35-3.59,28.42-81.86-10.35c-5.05-.64-9.69-.55-13.89.26-4.21.82-7.9,2.31-11.06,4.47-3.16,2.17-5.75,4.98-7.76,8.45-2.01,3.47-3.31,7.54-3.9,12.21Z"/><path class="cls-1" d="m1598.61,1170c-.51,1.51-1.48,2.59-2.91,3.25l-15.12,6.89c-4.97-7.59-7.87-15.91-8.72-24.96-.85-9.05.56-19.01,4.22-29.87,3.32-9.83,7.97-18.11,13.96-24.82,5.99-6.71,12.9-11.81,20.72-15.29,7.82-3.48,16.34-5.31,25.54-5.5,9.2-.19,18.66,1.35,28.37,4.63,6.52,2.2,12.48,5,17.88,8.4,5.4,3.4,10.12,7.29,14.15,11.68,4.03,4.38,7.39,9.16,10.08,14.33,2.69,5.17,4.62,10.64,5.8,16.42,1.18,5.77,1.54,11.76,1.1,17.96-.44,6.2-1.75,12.53-3.93,18.98-1.63,4.83-3.59,9.25-5.89,13.28-2.3,4.03-4.83,7.66-7.6,10.89-2.77,3.23-5.76,6.07-8.97,8.52-3.21,2.44-6.51,4.51-9.9,6.19l-9.41-13.35c-.6-.81-1.06-1.74-1.38-2.78-.32-1.05-.23-2.3.25-3.74.49-1.45,1.49-2.74,3.02-3.87,1.52-1.13,3.28-2.56,5.27-4.27,1.99-1.71,4.04-4.01,6.15-6.89,2.11-2.88,4-6.8,5.67-11.74,1.85-5.49,2.55-10.86,2.11-16.12-.45-5.26-2-10.17-4.66-14.72-2.66-4.56-6.43-8.67-11.31-12.33-4.88-3.66-10.82-6.67-17.82-9.03-7.06-2.38-13.68-3.52-19.86-3.42-6.18.1-11.75,1.21-16.7,3.34-4.95,2.13-9.17,5.14-12.67,9.03-3.5,3.89-6.12,8.43-7.87,13.62-1.04,3.08-1.83,5.92-2.37,8.52-.54,2.6-.81,5.1-.81,7.49,0,2.38.25,4.72.76,7.01.5,2.29,1.31,4.69,2.41,7.21.32.85.54,1.69.66,2.54.12.85.04,1.69-.25,2.54Z"/><path class="cls-1" d="m1605.09,1265.12l-2.79,4.89c-2.33,4.09-2.75,7.78-1.25,11.05l23.37,53.67c1.12,2.54,1.56,4.88,1.33,7.02-.23,2.14-1.06,4.45-2.48,6.94l-12.3,21.57-27.5-66.47c-1.79-4.32-2.62-8.2-2.49-11.64-1.88,1.49-3.88,2.66-6.01,3.5-2.13.84-4.62,1.39-7.49,1.67l-78.59,7.3,12.63-22.15c.82-1.44,1.63-2.61,2.44-3.5.8-.9,1.62-1.62,2.45-2.18.83-.56,1.69-.94,2.59-1.16.9-.22,1.87-.36,2.93-.42l60.95-6.25c2.09-.2,3.87-.84,5.32-1.91,1.46-1.08,2.93-2.91,4.41-5.51l3.97-6.97-52.18-29.76,14.19-24.89,120.37,68.64-14.19,24.89-49.69-28.34Z"/><path class="cls-1" d="m1354.83,1449.65l18.42-18.19c3.44-3.4,7.23-4.55,11.37-3.44l48.62,11.72c1.93.42,3.63.44,5.1.07,1.47-.37,3.11-1.46,4.92-3.25l6.93-6.84-37.11-37.58,20.38-20.13,97.37,98.6-30.99,30.6c-6.89,6.8-13.48,11.9-19.78,15.31s-12.27,5.38-17.9,5.93c-5.63.55-10.9-.22-15.82-2.29-4.92-2.08-9.46-5.23-13.62-9.44-3.22-3.26-5.81-6.81-7.77-10.65-1.96-3.84-3.24-7.83-3.84-11.98-.6-4.15-.53-8.42.22-12.83.75-4.41,2.22-8.81,4.41-13.21-2.03.57-4.11.91-6.25,1.01-2.14.1-4.36-.11-6.65-.62l-58-12.79Zm99.04,4.74c-3.31,3.27-5.75,6.5-7.32,9.71-1.57,3.21-2.4,6.31-2.49,9.3-.09,2.99.49,5.84,1.74,8.55,1.24,2.71,3.03,5.24,5.35,7.6,4.61,4.67,9.74,6.76,15.39,6.28,5.65-.48,11.65-3.86,17.99-10.12l10.6-10.47-30.8-31.19-10.46,10.33Z"/><path class="cls-1" d="m1300.12,1515.56c-3.88,2.56-6.92,5.51-9.14,8.85-2.22,3.34-3.6,6.9-4.14,10.7-.54,3.79-.25,7.76.88,11.9,1.13,4.13,3.1,8.33,5.91,12.58l45.52,68.82-23.9,15.81-45.52-68.82c-4.64-7.01-7.77-14.2-9.39-21.55-1.62-7.36-1.74-14.55-.36-21.58,1.38-7.02,4.29-13.71,8.71-20.07,4.42-6.36,10.4-12.03,17.94-17.02,7.54-4.99,15.12-8.28,22.72-9.88,7.61-1.6,14.91-1.66,21.92-.19,7,1.47,13.58,4.4,19.71,8.77,6.14,4.37,11.53,10.07,16.16,17.08l45.52,68.82-23.9,15.81-45.52-68.82c-2.81-4.25-5.9-7.7-9.26-10.36-3.36-2.66-6.9-4.48-10.6-5.47-3.7-.98-7.53-1.11-11.47-.37-3.94.74-7.87,2.4-11.8,5Z"/><path class="cls-1" d="m1209.34,1693.4c-8.61,3.49-16.3,5.66-23.07,6.51-6.76.85-12.68.57-17.75-.84-5.07-1.41-9.35-3.89-12.85-7.42s-6.3-7.92-8.43-13.17c-1.2-2.95-1.92-5.96-2.16-9.02-.24-3.06.05-6.15.88-9.27.83-3.12,2.27-6.23,4.31-9.32,2.04-3.1,4.74-6.11,8.08-9.05-9.57,1.47-17.39.73-23.47-2.24-6.08-2.96-10.62-8.16-13.64-15.6-2.2-5.43-3.2-10.9-2.99-16.41.21-5.51,1.62-10.79,4.25-15.84,2.63-5.05,6.49-9.72,11.58-14.02,5.09-4.3,11.45-7.99,19.06-11.07l49.74-20.16,52.04,128.43-45.58,18.47Zm-47.51-106.56c-4.25,1.72-7.54,3.65-9.86,5.8-2.33,2.14-3.97,4.41-4.93,6.79-.96,2.38-1.31,4.81-1.07,7.28.25,2.48.85,4.89,1.81,7.25,1.05,2.6,2.38,4.77,3.98,6.53,1.6,1.75,3.55,3.01,5.85,3.76,2.3.75,4.97.96,8.03.61,3.05-.35,6.59-1.33,10.6-2.96l22.57-9.15-14.24-35.14-22.75,9.22Zm58.36,78.67l-14.06-34.7-17.44,7.07c-3.72,1.51-6.9,3.16-9.54,4.95-2.64,1.79-4.66,3.76-6.06,5.91-1.4,2.15-2.16,4.54-2.3,7.17-.13,2.63.43,5.51,1.7,8.64,1.29,3.19,2.82,5.73,4.58,7.62,1.76,1.89,3.81,3.16,6.13,3.8,2.32.64,4.96.72,7.93.24,2.97-.48,6.31-1.47,10.02-2.98l19.03-7.71Z"/><path class="cls-1" d="m1050.58,1740.7c-9.12,1.8-17.08,2.48-23.88,2.04-6.8-.44-12.56-1.84-17.28-4.18-4.71-2.35-8.45-5.58-11.21-9.71s-4.69-8.97-5.79-14.53c-.62-3.12-.75-6.21-.42-9.26.34-3.05,1.21-6.03,2.62-8.94,1.41-2.91,3.4-5.69,6-8.34,2.59-2.65,5.81-5.11,9.65-7.36-9.67-.36-17.22-2.57-22.63-6.63-5.41-4.06-8.89-10.02-10.44-17.89-1.13-5.75-1.08-11.31.16-16.68,1.24-5.37,3.63-10.29,7.16-14.75,3.53-4.46,8.21-8.32,14.02-11.58,5.81-3.26,12.75-5.68,20.81-7.27l52.65-10.4,26.84,135.95-48.25,9.53Zm-26.52-113.62c-4.5.89-8.09,2.17-10.78,3.83-2.69,1.67-4.73,3.58-6.12,5.73-1.39,2.16-2.2,4.47-2.42,6.95-.22,2.48-.09,4.97.4,7.46.54,2.75,1.44,5.13,2.68,7.16,1.24,2.03,2.92,3.62,5.04,4.8,2.11,1.17,4.7,1.88,7.77,2.12,3.06.24,6.72-.06,10.97-.9l23.89-4.72-7.34-37.2-24.08,4.75Zm42.45,88.28l-7.25-36.73-18.46,3.64c-3.94.78-7.37,1.79-10.3,3.06-2.93,1.26-5.29,2.81-7.06,4.66-1.78,1.84-2.98,4.04-3.61,6.6-.63,2.56-.62,5.49.03,8.8.67,3.37,1.69,6.16,3.06,8.35,1.38,2.19,3.14,3.82,5.3,4.89,2.16,1.07,4.74,1.64,7.74,1.73,3,.09,6.47-.26,10.41-1.03l20.14-3.98Z"/><path class="cls-1" d="m906.89,1734.49l-.63-35.62-46.22.82-.38-21.67,46.21-.82-.64-36.38-59.39,1.05-.4-22.44,88.23-1.56,2.45,138.55-88.23,1.56-.4-22.44,59.39-1.05Z"/><path class="cls-1" d="m701.63,1599.82l25.56,4.03c4.78.75,7.95,3.12,9.51,7.11l19.41,46.09c.81,1.8,1.8,3.19,2.97,4.14,1.17.96,3.01,1.64,5.53,2.03l9.62,1.52,8.23-52.17,28.3,4.46-21.6,136.88-43.02-6.79c-9.56-1.51-17.58-3.79-24.06-6.84-6.48-3.05-11.61-6.68-15.4-10.89-3.78-4.21-6.3-8.91-7.54-14.1-1.24-5.19-1.4-10.71-.48-16.56.71-4.53,2.04-8.72,3.97-12.57,1.93-3.85,4.38-7.25,7.36-10.2,2.98-2.95,6.46-5.43,10.46-7.44,3.99-2.01,8.41-3.44,13.25-4.29-1.66-1.29-3.17-2.77-4.52-4.44-1.35-1.66-2.5-3.57-3.45-5.72l-24.12-54.27Zm54.94,82.53c-4.59-.72-8.64-.77-12.16-.13-3.52.64-6.5,1.81-8.97,3.52-2.46,1.71-4.41,3.86-5.85,6.47-1.44,2.61-2.42,5.55-2.94,8.82-1.02,6.48.34,11.85,4.08,16.11,3.74,4.26,10.02,7.09,18.82,8.48l14.72,2.32,6.83-43.3-14.53-2.29Z"/><path class="cls-1" d="m475.52,1582.9c4.32-9.16,9.83-16.85,16.54-23.08,6.71-6.23,14.17-10.79,22.39-13.67,8.22-2.88,17.01-4.01,26.37-3.4,9.36.61,18.84,3.19,28.46,7.72l48.2,22.74-59.12,125.33-48.2-22.74c-9.62-4.54-17.63-10.22-24.06-17.05-6.42-6.83-11.13-14.35-14.12-22.55-2.99-8.21-4.22-16.86-3.69-25.97.53-9.11,2.94-18.22,7.24-27.31Zm26.6,12.55c-3.1,6.56-5.02,12.87-5.76,18.93-.74,6.05-.36,11.66,1.15,16.81,1.51,5.15,4.13,9.79,7.84,13.94,3.71,4.14,8.5,7.6,14.38,10.37l22.11,10.43,39.97-84.73-22.11-10.43c-5.87-2.77-11.58-4.29-17.13-4.54-5.54-.26-10.79.68-15.74,2.82-4.95,2.13-9.52,5.42-13.72,9.84-4.2,4.42-7.86,9.95-10.98,16.57Z"/><path class="cls-1" d="m417.89,1485.66c-3.69-2.82-7.48-4.73-11.37-5.73-3.88-1-7.7-1.13-11.47-.4-3.76.73-7.41,2.31-10.95,4.74-3.53,2.43-6.85,5.67-9.94,9.72l-50.05,65.6-22.78-17.38,50.05-65.6c5.1-6.68,10.86-12,17.27-15.95,6.42-3.95,13.17-6.43,20.26-7.43,7.09-1,14.36-.45,21.82,1.63,7.46,2.09,14.78,5.87,21.97,11.36,7.19,5.48,12.79,11.56,16.79,18.22,4.01,6.66,6.47,13.54,7.37,20.64.91,7.1.31,14.27-1.81,21.5-2.12,7.23-5.72,14.19-10.82,20.87l-50.05,65.6-22.78-17.38,50.05-65.6c3.09-4.05,5.34-8.1,6.75-12.15,1.41-4.05,1.97-7.99,1.68-11.81-.29-3.82-1.42-7.47-3.41-10.95-1.99-3.48-4.86-6.65-8.6-9.51Z"/><path class="cls-1" d="m268.74,1355.62c-1.05-1.19-1.5-2.58-1.36-4.15l1.6-16.54c9.06-.51,17.71,1.14,25.97,4.94,8.26,3.8,16.18,10,23.75,18.6,6.86,7.79,11.69,15.96,14.51,24.51,2.82,8.55,3.77,17.08,2.87,25.59-.9,8.51-3.57,16.8-8.01,24.86-4.44,8.06-10.5,15.48-18.2,22.25-5.16,4.54-10.57,8.3-16.21,11.28-5.65,2.98-11.38,5.12-17.19,6.42-5.81,1.3-11.63,1.82-17.46,1.56-5.82-.26-11.53-1.32-17.12-3.19-5.59-1.87-10.95-4.54-16.1-8.03-5.15-3.49-9.97-7.78-14.47-12.9-3.36-3.82-6.22-7.74-8.56-11.74-2.34-4.01-4.21-8.02-5.63-12.03-1.41-4.01-2.38-8.02-2.89-12.03-.51-4-.65-7.89-.41-11.66l16.27-1.47c1-.12,2.03-.05,3.1.2,1.07.25,2.1.95,3.11,2.09,1.01,1.15,1.62,2.66,1.84,4.55.22,1.89.57,4.12,1.06,6.7.49,2.58,1.46,5.51,2.89,8.78,1.44,3.27,3.88,6.87,7.33,10.79,3.83,4.35,8.13,7.65,12.9,9.89,4.77,2.25,9.8,3.35,15.08,3.33,5.28-.02,10.73-1.23,16.34-3.63,5.61-2.39,11.19-6.03,16.73-10.91,5.59-4.92,9.89-10.08,12.9-15.49,3.01-5.4,4.83-10.78,5.46-16.13.63-5.35.14-10.51-1.48-15.49-1.62-4.97-4.24-9.52-7.86-13.63-2.15-2.44-4.21-4.54-6.19-6.32-1.98-1.77-4.01-3.25-6.08-4.45-2.07-1.19-4.22-2.14-6.45-2.85-2.23-.71-4.71-1.21-7.45-1.52-.89-.15-1.74-.38-2.53-.7s-1.48-.82-2.07-1.49Z"/><path class="cls-1" d="m183.09,1313.77l-2.85-4.86c-2.38-4.06-5.37-6.26-8.96-6.59l-58.18-6.52c-2.76-.3-5.01-1.08-6.75-2.35-1.74-1.27-3.33-3.14-4.78-5.61l-12.56-21.42,71.33,9.33c4.64.6,8.41,1.82,11.33,3.65-.36-2.37-.37-4.69-.04-6.95.33-2.26,1.1-4.7,2.29-7.32l32.89-71.75,12.9,22c.84,1.43,1.44,2.71,1.82,3.86.38,1.14.6,2.21.66,3.21.07,1-.03,1.94-.28,2.82-.25.89-.62,1.8-1.1,2.75l-24.99,55.94c-.87,1.91-1.2,3.77-1,5.57.21,1.8,1.07,3.99,2.58,6.57l4.06,6.92,51.82-30.38,14.49,24.72-119.55,70.08-14.49-24.72,49.35-28.93Z"/><path class="cls-1" d="m148.37,1004.82l6.51,25.05c1.22,4.68.31,8.54-2.72,11.56l-34.5,36.2c-1.33,1.46-2.2,2.92-2.61,4.38s-.3,3.42.34,5.88l2.45,9.43,51.11-13.29,7.21,27.73-134.11,34.87-10.96-42.15c-2.44-9.37-3.55-17.63-3.34-24.79s1.49-13.31,3.83-18.46c2.35-5.15,5.65-9.33,9.91-12.54,4.26-3.21,9.26-5.57,14.99-7.06,4.44-1.15,8.81-1.61,13.11-1.38,4.3.23,8.4,1.12,12.29,2.68,3.89,1.55,7.56,3.76,11,6.61,3.44,2.86,6.52,6.33,9.22,10.43.52-2.04,1.27-4.02,2.26-5.92.99-1.9,2.27-3.71,3.86-5.44l40.12-43.78Zm-53.72,83.33c-1.17-4.5-2.75-8.23-4.74-11.2-1.99-2.97-4.26-5.24-6.8-6.82-2.55-1.57-5.3-2.5-8.27-2.78-2.97-.28-6.05,0-9.26.83-6.35,1.65-10.73,5.04-13.14,10.18s-2.5,12.01-.26,20.64l3.75,14.42,42.42-11.03-3.7-14.23Z"/><path class="cls-1" d="m118.87,924.44c-.27-4.64-1.29-8.76-3.07-12.35-1.77-3.59-4.16-6.58-7.17-8.95-3.01-2.37-6.59-4.11-10.73-5.21-4.15-1.1-8.76-1.5-13.85-1.2l-82.37,4.83-1.68-28.6,82.37-4.83c8.39-.49,16.18.41,23.36,2.7,7.18,2.29,13.46,5.8,18.84,10.52,5.38,4.72,9.71,10.59,12.99,17.61,3.28,7.02,5.19,15.04,5.72,24.06.53,9.03-.42,17.23-2.86,24.61-2.44,7.38-6.05,13.73-10.84,19.05-4.79,5.32-10.62,9.54-17.48,12.65-6.86,3.11-14.49,4.92-22.88,5.41l-82.37,4.83-1.68-28.6,82.37-4.83c5.09-.3,9.62-1.23,13.61-2.81,3.99-1.57,7.34-3.71,10.05-6.42,2.71-2.71,4.74-5.95,6.08-9.73,1.34-3.78,1.87-8.02,1.6-12.72Z"/><path class="cls-1" d="m10.35,756.92c1.28-9.21,3.24-16.95,5.88-23.24,2.64-6.29,5.84-11.27,9.6-14.96,3.76-3.69,8.04-6.16,12.84-7.42,4.8-1.26,10.01-1.5,15.62-.72,3.15.44,6.12,1.32,8.89,2.63,2.77,1.32,5.3,3.12,7.59,5.39,2.29,2.28,4.26,5.08,5.92,8.39,1.66,3.32,2.93,7.16,3.8,11.52,3.51-9.02,8.06-15.43,13.66-19.21,5.6-3.78,12.38-5.12,20.33-4.02,5.8.81,11.04,2.68,15.71,5.61,4.67,2.93,8.54,6.8,11.6,11.59,3.06,4.8,5.18,10.48,6.36,17.03,1.18,6.56,1.2,13.91.07,22.04l-7.39,53.16L3.58,805.63l6.78-48.71Zm18.74,23.34l37.08,5.16,2.59-18.63c.55-3.97.71-7.55.48-10.73-.23-3.18-.93-5.91-2.09-8.2-1.16-2.28-2.85-4.14-5.06-5.57-2.21-1.43-4.99-2.38-8.33-2.85-3.41-.47-6.37-.42-8.89.16-2.52.58-4.64,1.72-6.36,3.41-1.71,1.69-3.1,3.94-4.17,6.75-1.07,2.81-1.88,6.2-2.43,10.17l-2.83,20.34Zm97.31-11.25c.63-4.54.6-8.35-.1-11.44-.69-3.09-1.83-5.64-3.42-7.66-1.58-2.02-3.51-3.54-5.78-4.56-2.27-1.02-4.66-1.71-7.19-2.06-2.77-.39-5.32-.32-7.64.19-2.32.51-4.38,1.58-6.18,3.19-1.8,1.61-3.31,3.83-4.54,6.65-1.23,2.82-2.14,6.37-2.74,10.66l-3.35,24.12,37.55,5.22,3.38-24.31Z"/><path class="cls-1" d="m48.66,595.79c2.99-8.8,6.38-16.04,10.16-21.71,3.78-5.67,7.87-9.97,12.25-12.88,4.39-2.91,9.06-4.53,14.01-4.86,4.95-.33,10.11.42,15.48,2.24,3.01,1.03,5.76,2.45,8.23,4.26,2.48,1.82,4.62,4.06,6.44,6.73,1.82,2.67,3.23,5.79,4.23,9.36s1.52,7.58,1.56,12.03c5.15-8.2,10.83-13.63,17.04-16.29,6.22-2.66,13.12-2.7,20.72-.11,5.55,1.89,10.33,4.71,14.37,8.47,4.03,3.76,7.1,8.29,9.2,13.57,2.1,5.29,3.11,11.26,3.03,17.93-.08,6.66-1.45,13.88-4.09,21.66l-17.29,50.81-131.18-44.65,15.85-46.56Zm14,26.45l35.44,12.06,6.06-17.81c1.29-3.8,2.12-7.28,2.5-10.45.37-3.17.2-5.98-.51-8.44-.71-2.46-2.01-4.6-3.92-6.43-1.9-1.82-4.45-3.28-7.64-4.37-3.25-1.11-6.18-1.61-8.76-1.52-2.59.1-4.88.81-6.88,2.15-2,1.34-3.79,3.28-5.37,5.84-1.58,2.56-3.01,5.73-4.3,9.53l-6.62,19.44Zm97.68,7.32c1.48-4.34,2.17-8.09,2.06-11.25-.1-3.16-.74-5.88-1.91-8.17-1.17-2.28-2.78-4.14-4.81-5.57-2.03-1.43-4.26-2.56-6.67-3.38-2.65-.9-5.17-1.32-7.54-1.26-2.38.07-4.6.72-6.67,1.97-2.07,1.25-3.98,3.14-5.71,5.67-1.74,2.54-3.3,5.85-4.7,9.95l-7.85,23.05,35.89,12.22,7.91-23.23Z"/><path class="cls-1" d="m125.84,474.46l31.15,17.29,22.43-40.42,18.96,10.52-22.43,40.41,31.81,17.66,28.83-51.94,19.62,10.89-42.82,77.16-121.16-67.24,42.82-77.16,19.62,10.89-28.83,51.94Z"/><path class="cls-1" d="m345.46,364.25l-16.32,20.09c-3.05,3.76-6.69,5.31-10.92,4.66l-49.6-6.34c-1.97-.2-3.66-.04-5.07.49-1.42.53-2.93,1.79-4.53,3.76l-6.14,7.56,40.99,33.3-18.07,22.24-107.55-87.38,27.46-33.8c6.1-7.51,12.1-13.3,17.99-17.37s11.61-6.69,17.14-7.85c5.54-1.16,10.86-.98,15.98.55,5.11,1.53,9.97,4.16,14.56,7.9,3.56,2.89,6.52,6.14,8.88,9.74,2.36,3.6,4.07,7.43,5.13,11.49,1.05,4.06,1.45,8.31,1.19,12.78-.26,4.46-1.24,9-2.94,13.61,1.96-.79,3.99-1.35,6.11-1.68,2.12-.33,4.34-.37,6.68-.11l59.05,6.38Zm-98.96,6.1c2.93-3.61,5-7.09,6.22-10.45,1.21-3.36,1.7-6.53,1.46-9.52-.24-2.98-1.13-5.75-2.66-8.31-1.53-2.56-3.58-4.88-6.15-6.97-5.09-4.13-10.42-5.65-15.98-4.56-5.57,1.1-11.16,5.1-16.78,12.02l-9.39,11.56,34.02,27.64,9.27-11.41Z"/><path class="cls-1" d="m473.14,176.8c5.78,8.31,9.69,16.93,11.75,25.85,2.05,8.92,2.28,17.67.67,26.23-1.61,8.56-5.01,16.74-10.21,24.54-5.2,7.8-12.17,14.74-20.9,20.8l-43.76,30.41-79.08-113.79,43.76-30.41c8.73-6.07,17.66-10.18,26.78-12.33,9.12-2.15,17.99-2.48,26.59-.98,8.6,1.5,16.72,4.76,24.35,9.77,7.63,5.01,14.32,11.64,20.06,19.9Zm-24.15,16.79c-4.14-5.96-8.65-10.77-13.53-14.44-4.87-3.67-9.92-6.13-15.14-7.39-5.22-1.26-10.55-1.31-15.99-.17-5.44,1.15-10.83,3.57-16.16,7.28l-20.08,13.95,53.47,76.93,20.08-13.95c5.33-3.71,9.49-7.9,12.49-12.57,2.99-4.68,4.8-9.69,5.42-15.05.62-5.35.06-10.96-1.68-16.8-1.74-5.85-4.7-11.78-8.88-17.79Z"/><path class="cls-1" d="m586.14,175.38c4.29-1.79,7.83-4.12,10.64-6.98,2.8-2.86,4.83-6.11,6.07-9.73,1.24-3.63,1.7-7.58,1.36-11.85-.34-4.27-1.49-8.76-3.45-13.46l-31.83-76.13,26.43-11.05,31.83,76.13c3.24,7.75,4.97,15.4,5.19,22.93.22,7.54-1.01,14.62-3.69,21.26-2.68,6.64-6.78,12.67-12.31,18.09-5.53,5.42-12.47,9.87-20.81,13.36-8.34,3.49-16.4,5.3-24.17,5.45-7.77.14-14.96-1.16-21.57-3.92-6.61-2.76-12.51-6.86-17.72-12.31-5.21-5.45-9.44-12.05-12.68-19.8l-31.83-76.13,26.43-11.05,31.83,76.13c1.97,4.7,4.35,8.67,7.16,11.91,2.81,3.24,5.93,5.7,9.39,7.36,3.45,1.66,7.19,2.5,11.19,2.51,4.01.02,8.19-.89,12.53-2.7Z"/><path class="cls-1" d="m773.37,111.42c1.56-.31,2.98,0,4.27.9l13.51,9.68c-4.1,8.09-9.87,14.75-17.3,19.99-7.43,5.24-16.76,8.98-28,11.22-10.18,2.02-19.67,2.11-28.48.26-8.81-1.85-16.67-5.3-23.58-10.35-6.91-5.05-12.74-11.52-17.49-19.4-4.75-7.88-8.12-16.85-10.12-26.91-1.34-6.74-1.88-13.31-1.63-19.69.26-6.38,1.28-12.41,3.07-18.09,1.79-5.68,4.26-10.97,7.41-15.88,3.15-4.91,6.93-9.31,11.35-13.21,4.42-3.9,9.43-7.2,15.02-9.9,5.6-2.7,11.73-4.72,18.42-6.05,5-.99,9.81-1.5,14.45-1.51,4.64-.01,9.05.38,13.23,1.17,4.18.79,8.13,1.97,11.85,3.53,3.72,1.57,7.15,3.4,10.3,5.5l-6.89,14.81c-.4.92-.98,1.79-1.73,2.58-.75.8-1.87,1.35-3.37,1.64-1.5.3-3.12.07-4.86-.69-1.74-.76-3.85-1.57-6.33-2.44-2.48-.87-5.49-1.5-9.04-1.9-3.55-.4-7.89-.09-13.01.93-5.68,1.13-10.69,3.2-15.03,6.2-4.34,3-7.82,6.8-10.44,11.38-2.63,4.58-4.31,9.9-5.06,15.95-.74,6.06-.39,12.71,1.05,19.95,1.45,7.31,3.76,13.61,6.93,18.92,3.16,5.31,6.9,9.58,11.21,12.81,4.31,3.23,9.02,5.4,14.14,6.49,5.12,1.09,10.36,1.1,15.73.04,3.18-.63,6.04-1.36,8.57-2.19,2.53-.83,4.83-1.84,6.9-3.03,2.07-1.19,3.97-2.57,5.7-4.15,1.73-1.58,3.42-3.47,5.05-5.68.57-.7,1.2-1.31,1.88-1.83.67-.52,1.45-.87,2.32-1.05Z"/><path class="cls-1" d="m851.42,58.63l5.63-.09c4.71-.08,8.09-1.6,10.15-4.56l34.28-47.45c1.62-2.25,3.41-3.83,5.37-4.72,1.96-.89,4.37-1.36,7.24-1.41l24.83-.4-43.19,57.53c-2.8,3.74-5.72,6.43-8.75,8.07,2.24.86,4.27,1.98,6.07,3.39,1.8,1.4,3.55,3.27,5.25,5.6l46.31,63.91-25.5.41c-1.66.03-3.07-.08-4.26-.31-1.18-.23-2.22-.57-3.12-1-.9-.43-1.67-.98-2.32-1.63s-1.26-1.43-1.85-2.31l-36.42-49.27c-1.24-1.7-2.69-2.9-4.36-3.61-1.67-.7-4-1.03-6.99-.99l-8.02.13.97,60.06-28.65.46-2.25-138.55,28.65-.46.93,57.2Z"/></g></svg>