<?xml version="1.0" encoding="UTF-8"?><svg id="_レイヤー_2" xmlns="http://www.w3.org/2000/svg" viewBox="0 0 1400 1396.23"><defs><style>.cls-1{fill:#0e1400;}.cls-1,.cls-2,.cls-3,.cls-4,.cls-5,.cls-6,.cls-7,.cls-8{stroke-width:0px;}.cls-2{fill:#e05a00;}.cls-3{fill:#ff7f02;}.cls-4{fill:#ffe448;}.cls-5{fill:#fff;}.cls-6{fill:#ffd301;}.cls-7{fill:#ffc689;}.cls-8{fill:#efa706;}</style></defs><g id="Layer_1"><polygon class="cls-6" points="204.21 388.7 176.67 469.96 224.43 511.45 316.67 524.29 262.34 396.82 204.21 388.7"/><path class="cls-6" d="m835.78,1396.23h-188.66c-181.49,0-577.07-20.37-606.57-364.18-12.74-148.46,57.65-291.34,217.31-333.93,67.45-17.99,50.15-81.99,18.72-120.31-48.17-58.74-73.65-134.84-73.65-215.61C202.94,162.17,370.8,0,577.87,0s374.93,162.17,374.93,362.2c0,80.08-26.91,154.09-72.46,214.06-38.89,51.19,1.97,119.55,66.23,117.72,288.03-8.2,399.48-86.6,399.48-86.6,223.67,648.74-307.27,788.85-510.26,788.85Z"/><path class="cls-8" d="m880.34,576.26c-25.1,33-17,73.17,9.17,97.03-60.13-6.59-95.4-72.81-57.12-123.22,47.88-63.02,76.15-140.8,76.15-224.93,0-89.79-32.19-172.35-86.04-237.42,79.79,66.41,130.29,164.75,130.29,274.48,0,80.07-26.91,154.1-72.45,214.07Z"/><path class="cls-8" d="m835.78,1396.23h-188.66c-148.23,0-439.26-13.59-556.99-205.87,142.19,130.1,386.1,140.49,519.07,140.49h195.41c183.62,0,626.36-108.94,581.21-577.07,100.87,523.92-363.32,642.46-550.04,642.46Z"/><path class="cls-3" d="m323.8,539.33c-21.34,11.96-61.06,23.67-134.81,23.67-114.15,0-168.35-77.85-187.76-115.1-1.05-2.02-1.39-4.1-1.18-6.09.68-6.12,6.66-11.25,14.2-10.46,121.99,12.63,189.95-42.66,189.95-42.66v13.76c0,56.85,25.8,116.95,88.96,129.47,9.47,1.88,19.41,5.29,30.63,7.4Z"/><path class="cls-2" d="m323.8,539.33c-21.34,11.96-61.06,23.67-134.81,23.67-114.15,0-168.35-77.85-187.76-115.1-1.05-2.02-1.39-4.1-1.18-6.09,0,0,73.13,129.71,293.11,90.11,9.23,2.81,19.41,5.29,30.63,7.4Z"/><path class="cls-7" d="m21.11,444.3c3.11,3.65,6.78,7.2,10.54,10.39,3.78,3.23,7.85,6.11,12.06,8.74,4.22,2.62,8.57,5.02,13.07,7.14,2.23,1.09,4.56,1.99,6.8,3.05,2.3.95,4.6,1.9,6.84,2.99l.25.12c2.37,1.15,3.37,4,2.22,6.38-1.08,2.23-3.69,3.23-5.96,2.39-2.49-.93-4.96-1.91-7.36-3.04-2.37-1.22-4.76-2.37-7.05-3.75-4.61-2.66-9.09-5.56-13.33-8.81-4.19-3.3-8.19-6.85-11.84-10.74-3.61-3.96-6.93-8.08-9.25-13.18-.39-.87,0-1.89.86-2.28.72-.32,1.54-.12,2.02.45l.13.15Z"/><ellipse class="cls-7" cx="89.85" cy="490.19" rx="6.82" ry="8.44" transform="translate(-407.58 459.87) rotate(-76.13)"/><ellipse class="cls-1" cx="354.18" cy="260.7" rx="66.47" ry="41.39" transform="translate(10.51 535.11) rotate(-74.96)"/><path class="cls-5" d="m354.54,238.14c-2.36,8.79-8.71,14.72-14.19,13.25-5.47-1.47-8-9.79-5.64-18.58,2.36-8.79,8.71-14.72,14.19-13.25,5.47,1.47,8,9.79,5.64,18.58Z"/><path class="cls-4" d="m781.47,139.05c-5.26,24.79-87.59,6.76-174.62-11.71-87.02-18.47-146.97-40.89-141.7-65.69,5.26-24.79,89.21-41.34,176.23-22.87,87.02,18.47,145.35,75.47,140.09,100.27Z"/><path class="cls-4" d="m189.71,856.72c.18.38.18.87.19,1.38.03.51,0,.94-.02,1.46-.02,1.02-.13,1.92-.25,2.87-.17,1.94-.57,3.68-.95,5.47-.83,3.49-1.98,6.75-3.3,9.9-1.37,3.1-3.01,6.06-4.51,9.08-1.48,3.05-2.97,6.07-4.34,9.18-5.59,12.32-10.3,25.01-13.92,37.88-7.44,25.71-10.53,51.93-10.42,77.47.18,25.6,3.95,50.65,10.72,75.27,3.47,12.32,7.98,24.33,12.51,36.62.46,1.58.87,3.19,1.22,4.84.41,1.63.84,3.26,1.18,4.94.7,3.36,1.15,6.87,1.36,10.59.07.92.06,1.88.1,2.83.05.94.16,1.86.17,2.83.05,1.93.07,3.9-.03,5.95-.08,2.05-.25,4.17-.58,6.41-.24,2.19-.64,4.5-1.24,6.98l-.65,2.66c-2.98,12.19-15.28,19.65-27.47,16.67-.46-.11-.98-.26-1.43-.4-19.4-6.12-31.8-18.41-40.63-32.59-2.16-3.58-4.06-7.3-5.83-11.08-1.7-3.82-3.22-7.73-4.83-11.61-3.39-7.67-5.75-15.81-8.46-23.8-9.76-32.36-13.49-66.96-10.4-100.65,1.56-16.84,4.67-33.42,9.07-49.5,4.47-16.06,10.17-31.62,17-46.52,6.79-14.92,14.64-29.2,23.34-42.87,2.15-3.43,4.44-6.79,6.72-10.14,2.36-3.31,4.56-6.7,7.3-9.78,2.71-3.08,5.74-5.94,9.24-8.48,1.76-1.24,3.58-2.47,5.64-3.5.98-.54,2.04-1.09,3.15-1.54.54-.22,1.09-.51,1.71-.72.59-.21,1.17-.44,1.95-.77,7.35-3.13,15.81.1,19.25,7.22l7.44,15.47Z"/><path class="cls-8" d="m996.25,1044.51c-1.96,8.1-6.23,15.52-11.25,21.37-4.99,5.95-10.67,10.56-16.38,14.38-5.73,3.75-11.56,6.76-17.41,9.17-11.68,4.87-23.31,7.74-34.79,9.46-11.51,1.67-22.83,2.6-34.05,3.08l-8.33.29c-2.63.1-5.59.1-8.5.12-5.85.02-11.68-.17-17.48-.53-5.99-.36-11.96-.93-17.91-1.72.07,1.41.12,2.82.1,4.3-.07,5.3-.91,11.15-2.94,16.95-1.98,5.8-5.18,11.25-8.84,15.67-3.68,4.44-7.74,7.93-11.75,10.75-8.05,5.49-15.86,8.57-23.26,10.89-7.4,2.22-14.5,3.58-21.42,4.54-13.85,1.74-27.01,1.86-39.95,1.36-12.9-.57-25.53-1.86-37.99-3.7-12.44-1.89-24.72-4.25-36.85-7.02-24.29-5.44-47.95-12.8-71.09-21.33-11.58-4.25-22.97-9.03-34.22-14.07-11.25-5.06-22.35-10.44-33.19-16.33-5.42-2.94-10.79-5.99-16.1-9.12-5.25-3.25-10.58-6.35-15.74-9.72-5.11-3.44-10.29-6.76-15.26-10.39l-7.47-5.37-7.33-5.56c-19.46-14.9-37.47-31.52-54.14-49.17-16.48-17.81-31.59-36.75-44.87-56.76,34.13,33.77,71.5,63.31,111.93,86.83l7.55,4.42,7.69,4.16c5.09,2.87,10.34,5.37,15.52,8,5.18,2.63,10.48,4.99,15.71,7.47,5.28,2.39,10.6,4.68,15.98,6.85,21.47,8.79,43.49,16.24,65.79,22.42,22.3,6.26,44.94,11.1,67.58,14.78,11.32,1.79,22.66,3.2,33.96,4.16,11.25.95,22.47,1.58,33.46,1.46,10.96-.12,21.76-.88,31.57-2.65,4.87-.86,9.5-2.01,13.49-3.37,3.96-1.38,7.24-3.1,8.98-4.47.84-.69,1.24-1.22,1.34-1.43.07-.19-.05-.07-.14.02,7.81-13.49-4.87-53.59-13.25-76.66l31.21,9.67c17.93,5.54,36.49,8.69,55.09,9.79,4.66.24,9.31.36,13.95.31,2.34-.05,4.61-.05,7.21-.17l7.38-.31c9.72-.48,19.3-1.36,28.54-2.77,9.24-1.36,18.2-2.79,26.44-4.54,8.24-1.7,15.69-3.8,21.21-6.04,2.77-1.15,5.04-2.22,7.19-3.8.45-.41,1.1-.84,1.6-1.31.53-.45,1-.98,1.5-1.58.96-1.19,1.84-2.72,2.6-4.51,1.53-3.61,2.44-8.24,2.82-13.37.38-5.13.26-10.7.19-16.76,5.3,2.91,9.98,6.71,14.09,11.39,4.13,4.66,7.55,10.32,9.77,17.17,1.05,3.44,1.74,7.19,1.86,11.18.19,3.99-.38,8.12-1.36,12.13Z"/></g></svg>