<?xml version="1.0" encoding="UTF-8"?>
<svg id="_レイヤー_2" data-name="レイヤー 2" xmlns="http://www.w3.org/2000/svg" xmlns:xlink="http://www.w3.org/1999/xlink" viewBox="0 0 805.28 805.28">
  <defs>
    <style>
      .cls-1 {
        fill: none;
      }

      .cls-2 {
        clip-path: url(#clippath);
      }

      .cls-3 {
        fill: #fff;
      }
    </style>
    <clipPath id="clippath">
      <circle class="cls-1" cx="402.64" cy="483" r="233.82"/>
    </clipPath>
  </defs>
  <g id="_レイヤー_1-2" data-name="レイヤー 1">
    <g>
      <circle class="cls-3" cx="402.64" cy="402.64" r="402.64"/>
      <g>
        <g>
          <path d="m349.17,118.29c-3.61-4.4-8.06-6.6-13.37-6.6-2.33,0-4.5.43-6.48,1.27-1.99.85-3.7,2-5.13,3.46-1.43,1.46-2.56,3.2-3.38,5.21-.82,2.02-1.23,4.19-1.23,6.52s.41,4.59,1.23,6.6c.82,2.02,1.96,3.77,3.42,5.25,1.46,1.49,3.17,2.65,5.13,3.5,1.96.85,4.08,1.27,6.37,1.27,4.99,0,9.47-2.12,13.45-6.37v18.46l-1.59.56c-2.39.85-4.62,1.47-6.68,1.87-2.07.4-4.11.6-6.13.6-4.14,0-8.1-.78-11.9-2.35-3.79-1.56-7.13-3.77-10.03-6.6-2.89-2.84-5.21-6.21-6.96-10.11-1.75-3.9-2.63-8.16-2.63-12.77s.86-8.84,2.59-12.69c1.72-3.85,4.03-7.16,6.92-9.95,2.89-2.79,6.25-4.96,10.07-6.52,3.82-1.56,7.82-2.35,12.01-2.35,2.39,0,4.73.25,7.04.76,2.31.5,4.73,1.29,7.28,2.35v18.62Z"/>
          <path d="m395.8,147.81h-22.28l-3.58,10.42h-16.63l22.84-59.99h17.03l22.84,59.99h-16.63l-3.58-10.42Zm-4.14-11.86l-7-19.97-7,19.97h14Z"/>
          <path d="m457.22,111.45h-18.78v10.03h17.11v13.21h-17.11v23.55h-15.6v-59.99h34.37v13.21Z"/>
          <path d="m500.67,111.45h-18.54v10.03h17.5v13.21h-17.5v10.34h18.54v13.21h-34.13v-59.99h34.13v13.21Z"/>
          <path d="m160.48,209.29c-3.61-4.4-8.06-6.6-13.37-6.6-2.33,0-4.5.43-6.48,1.27-1.99.85-3.7,2-5.13,3.46-1.43,1.46-2.56,3.2-3.38,5.21-.82,2.02-1.23,4.19-1.23,6.52s.41,4.59,1.23,6.6c.82,2.02,1.96,3.77,3.42,5.25,1.46,1.49,3.17,2.65,5.13,3.5,1.96.85,4.08,1.27,6.37,1.27,4.99,0,9.47-2.12,13.45-6.37v18.46l-1.59.56c-2.39.85-4.62,1.47-6.68,1.87-2.07.4-4.11.6-6.13.6-4.14,0-8.1-.78-11.9-2.35-3.79-1.56-7.13-3.77-10.03-6.6-2.89-2.84-5.21-6.21-6.96-10.11-1.75-3.9-2.63-8.16-2.63-12.77s.86-8.84,2.59-12.69c1.72-3.85,4.03-7.16,6.92-9.95,2.89-2.79,6.25-4.96,10.07-6.52,3.82-1.56,7.82-2.35,12.01-2.35,2.39,0,4.73.25,7.04.76,2.31.5,4.73,1.29,7.28,2.35v18.62Z"/>
          <path d="m207.1,238.81h-22.28l-3.58,10.42h-16.63l22.84-59.99h17.03l22.84,59.99h-16.63l-3.58-10.42Zm-4.14-11.86l-7-19.97-7,19.97h14Z"/>
          <path d="m231.45,249.24l10.18-59.99h15.44l12.02,31.99,11.94-31.99h15.44l10.18,59.99h-15.52l-5.17-34.53-14.16,34.53h-6.21l-13.45-34.53-5.17,34.53h-15.52Z"/>
          <path d="m332.1,249.24h-15.6v-59.99h24.83c6.74,0,11.9,1.75,15.48,5.25s5.37,8.43,5.37,14.8-1.79,11.3-5.37,14.8-8.74,5.25-15.48,5.25h-9.23v19.89Zm0-32.46h5.17c5.73,0,8.59-2.49,8.59-7.48s-2.86-7.48-8.59-7.48h-5.17v14.96Z"/>
          <path d="m407.22,238.81h-22.28l-3.58,10.42h-16.63l22.84-59.99h17.03l22.84,59.99h-16.63l-3.58-10.42Zm-4.14-11.86l-7-19.97-7,19.97h14Z"/>
          <path d="m434.27,249.24v-59.99h15.6l28.8,36.68v-36.68h15.52v59.99h-15.52l-28.8-36.68v36.68h-15.6Z"/>
          <path d="m540.89,202.45h-18.54v10.03h17.5v13.21h-17.5v10.34h18.54v13.21h-34.13v-59.99h34.13v13.21Z"/>
          <path d="m567.7,189.24v46.79h18.7v13.21h-34.29v-59.99h15.6Z"/>
          <path d="m610.03,189.24v46.79h18.7v13.21h-34.29v-59.99h15.6Z"/>
          <path d="m673.53,238.81h-22.28l-3.58,10.42h-16.63l22.84-59.99h17.03l22.84,59.99h-16.63l-3.58-10.42Zm-4.14-11.86l-7-19.97-7,19.97h14Z"/>
        </g>
        <g class="cls-2">
          <g>
            <path d="m336.42,606.06c.47-.15.93-.3,1.39-.45.87,1.05.06,1.83-.37,2.78.73-.22,1.29-.38,2.04-.6-.11,1.04-.21,1.92-.32,2.92.57,0,.94.05,1.28-.01.56-.1,1.1-.38,1.66-.39,1.19-.02,2.05-.53,2.69-1.5-.06-.66-.13-1.33-.19-1.98,1.61-1.13,2.94-2.37,4-3.89.39-.56.88-.86,1.59-.88.27,0,.54-.2.81-.6-.48-.09-.97-.19-1.58-.31.34-.84.65-1.63.97-2.41q-1.34-.58-2.59.72c-.41-.22-.84-.44-1.25-.68-.98-.58-.96-1.16.04-1.79.9-.56,1.8-1.14,2.75-1.74-.3-.57-.51-.99-.79-1.53.59-.25,1.08-.46,1.63-.69-.16-.28-.3-.53-.52-.91.69-.57,1.92-.81,1.63-2.15-1.12-1.13-2,.64-3.19.31-.24-.48-.52-1.02-.85-1.66-.98.1-1.97.28-2.96.26-1-.01-1.99-.22-3.05-.35-.21.55-.4,1.07-.61,1.62-1.71.6-3.38,1.13-5.26.73-.41.35-.86.73-1.39,1.18-.47-.88-.14-1.32.48-1.64.65-.34,1.5-.32,2.01-1.11-.28-.44-.56-.9-.9-1.43.6-.3,1.09-.56,1.7-.87-.03-.67-.07-1.41-.11-2.23.45-.36.93-.75,1.4-1.13q-1.04-1.32-.72-2.71c-2.24-.37-4.31.84-6.64.82.27-.87.94-.8,1.41-.93,1.65-.45,3.32-.82,4.97-1.24.36-.09.71-.25,1.16-.41.02-.49.04-.97.07-1.52,1.07-.05,1.79-.73,1.88-1.65.09-.86.59-1.06,1.15-1.26.59-.21,1.24-.26,1.86-.38.79.19,1.59.37,2.37.58.15.04.26.23.4.36-.27.38-.51.72-.85,1.2.49.21.89.35,1.25.54.15.08.23.27.39.46-.29.39-.57.76-1,1.33.78-.13,1.33-.22,1.84-.3.37-1.2,1.47-1.55,2.25-2.24.75-.66,1.47-1.35,2.32-2.15-1.02-.38-1.88-.37-2.76.15-.6.35-1.19.37-1.7-.22-.55-.64-1.5-.65-1.87-.24-.84.91-1.78.4-2.66.53,0-.57.14-1.01.82-1.07-1.68-.24-3.36-.52-5.04-.71-1.63-.19-3.28-.33-4.92-.43-1.71-.1-3.42-.09-5.12-.19-1.6-.09-3.25.33-4.82-.67.45-.09.91-.25,1.36-.26,1.65-.03,3.3.07,4.94-.04,3.79-.25,7.56.25,11.35.25.63,0,1.27.09,1.88.22,1.62.34,3.22.6,4.86.11.76-.22,1.48-.02,2.14.49.32.25.82.45,1.21.4,1.33-.17,2.61-.12,3.94.22-.31-.18-.59-.4-.92-.53-1.24-.52-2.75-.66-2.88-2.66-.13.08-.25.16-.38.24-.22.39-.44.77-.75,1.3-.63-.29-1.24-.57-1.75-.8-.53-.96.03-1.39.73-1.77-.24-.78-.46-1.48-.67-2.17,1.22-.52,1.56-.32,2.36,1.35.21-.38.41-.75.66-1.19-4.03-1.9-8.05-3.8-12.08-5.7.03-.1.06-.19.09-.29.32.05.67.05.96.17,3.78,1.62,7.55,3.25,11.31,4.91,1.2.53,2.28,1,3.75.78,1.28-.2,2.88-.29,3.97,1.02.29.35.81.53,1.3.83-.29.36-.52.64-.75.92.64.35,1.26.69,2.09,1.15-.64.42-1.04.68-1.54,1.01-.04.47-.08,1.03-.11,1.51.61.69,1.27.51,2-.49.4.09.82.18,1.25.28,1.06.25,1.25.11,1.46-.99.03-.18.1-.36.19-.65,1.69.12,2.31-1.69,3.96-2.08-1.08-1.01-2.04-1.87-2.75-2.99-.49-.77-1.32-1.26-1.17-2.42.08-.63-.93-1.07-1.4-.6-.62.62-1.25.42-1.86.42-.92-.63-1.15-1.91-2.34-2.22-.46.38-.89.72-1.34,1.09,1.05,2.16,3.38,3.15,4.86,5.15-.5.35-.92.65-1.32.93-.85-.64-1.6-1.21-2.44-1.85.05-.27.12-.62.2-1.03-.93-.99-1.88-2-2.82-2.99q-.95.4-1.1,1.56c-.66-.17-1.3-.33-2.01-.51-.27.18-.58.38-.92.6-1.07-.15-2.11-.5-3.27-.49-.89,0-1.87-.74-2.68-1.32-2.96-2.12-6.24-3.58-9.63-4.85-2.19-.82-4.38-1.64-6.56-2.5-.3-.12-.54-.41-1.18-.92.74,0,1.03-.08,1.27.01,5.06,1.83,10.15,3.58,14.85,6.26,1.31.75,2.77,1.24,4.12,1.93,1.51.77,2.64.23,3.83-1.02-2.25-1.66-4.41-3.37-6.69-4.9-2.36-1.58-4.82-3.04-7.29-4.45-2.38-1.36-4.83-2.58-7.18-4.02,1.48-.21,2.57.75,3.81,1.21,1.29.48,2.53,1.12,3.8,1.69.71.44,1.43.89,2.14,1.33,2.09,1.41,4.17,2.83,6.27,4.23,1.26.84,2.53,1.66,3.85,2.53.47-.24.9-.46,1.44-.74-.25-.53-.44-.98-.68-1.4-.24-.43-.65-.81-.18-1.43.63.78,1.24,1.54,1.84,2.28.89-.26,1.69-.41,2.42-.74.62-.27,1.14-.75,1.75-1.16-1.18-1.76-2.4-3.58-3.63-5.41.09-.08.18-.16.27-.24l2.85,3.51c.08-.05.16-.1.23-.14-.65-1.03-1.3-2.07-2.04-3.24.71-.11.88.34,1.1.66,1.06,1.5,2.1,3,3.19,4.56.44-.14.77-.24,1.24-.39-.31-.82-.59-1.55-.88-2.33.37-.03.66-.05,1.01-.08-.14-2.15-1.49-4.08-.92-6.35.32.79.63,1.58.95,2.37.16.78.27,1.58.51,2.33.13.39.51.66,1.19.39-.61-.96-1.17-1.83-1.73-2.71v-.89c.83.42,1.53.7,2.13,1.12.59.42,1.08.99,1.74,1.62.17-1.28-1.4-1.96-.79-3.27,1.72.5,1.16,2.77,2.83,3.48,0-.66.05-1.2,0-1.72-.11-1.01-.37-2-.39-3.01-.03-.98-.03-2.06,1.35-2.6.63,1.87,1.24,3.7,1.86,5.53.09-.01.17-.03.26-.04v-1.83c1.39.16,2.31.41,2.59.66.23-.2.46-.39.74-.64.96.73,1.85,1.42,2.79,2.14.62-.75,1.27-1.44,1.81-2.21.59-.85,1.16-1.64,2.27-1.86.31-.06.6-.44.81-.73.3-.41.55-.85.77-1.31.71-1.49,1.69-2.68,3.32-3.07.14-.47.25-.85.46-1.53,1.02,1.21.42,2.41.81,3.77.06-.99.1-1.66.15-2.56.67.38,1.17.67,1.8,1.03.09-.57.18-1.07.28-1.71.47.33.85.6,1.54,1.08-.15-.8-.24-1.25-.31-1.7-.13-.96,0-1.12,1.2-1.53.1-.46.21-.95.3-1.38.69-.68,1.56-.41,2.36.75-.29.19-.57.37-.97.63,0,.81-.06,1.69.01,2.56.12,1.44.32,2.87.5,4.49.71.8,1.57,1.76,2.55,2.86-.91.48-1.52,1.08-1.03,2.11-1.11.61-2.14,1.17-3.13,1.71-.16,1.25.12,2.57-1.3,3.31-.93-.81-1.85-1.61-1.89-3.04-.02-.49-.16-1.07-.94-.75.1.67.21,1.32.35,2.22-.66-.24-1.1-.39-1.48-.53v-2.32c-.45.92-.72,1.47-1.03,2.08.34.81.79,1.68.33,2.68-1.29.26-2.19-.47-3.19-1.18-.38.28-.76.57-1.21.9-.59-.94-1.14-1.84-1.75-2.82-1.28,1.39-.22,2.55.14,3.88-.38.17-.76.34-1.13.51-.12-1.09-.53-2.04-1.2-2.87-.99.24-1.69.67-1.96,1.77.4-.17.71-.3,1.12-.48.67.5,1.37,1.03,2.07,1.56.16,1.01-.77.55-1.22.9.09.47.18.99.34,1.86-.69-.49-1.08-.77-1.56-1.12-.24,1.25,1,2.08.52,3.31-.43-.05-.84-.1-1.34-.16-.07.21-.22.43-.21.65.06,1.33.35,1.82,1.53,2.51.46-.65.93-1.32,1.48-2.11,1.72,1.45,2.49,3.77,4.15,5.49.45-1.02.85-1.91,1.27-2.87-.45-.71-1.02-1.49-.67-2.73.52.38.96.7,1.51,1.11-.06-1-.12-1.86-.17-2.66,1.23-.46,1.34,1.45,2.62.94-.52-1.26-1.78-2.41-.44-3.78.74.29.56,1.07.82,1.6.27.54.54,1.09,1.16,1.54v-2.15c.38.43.56.63.82.93.09-.61.17-1.13.25-1.65l.28-.04c.15.36.31.71.48,1.12.08-.35.17-.72.24-1.02,1.19-.75,1.35.55,1.99,1.04.21-1.33.38-2.49.61-3.97.92,1.07,1.68,1.88,1.98,2.88.29.98.21,2.07.3,3.18,1.29-.19,1.42-1.58,2.4-1.87.81.74.13,1.42-.02,2.16.69.59,1.4,1.19,2.1,1.78.76-.09,1.09-1.4,2.22-.69-.31.55-.61,1.08-.88,1.57.54.62,1.04,1.2,1.6,1.84.44-.11.97-.24,1.71-.42-.21,1.15-.93,1.56-1.66,2.04-1.52,1.01-2.98,2.12-4.45,3.2-.09.06-.11.21-.23.45.54.37,1.1.75,1.73,1.18.16.72.34,1.5.54,2.36-.4.21-.77.4-1.25.65.15.47.29.91.42,1.35.31.01.52.09.68.02,1.68-.73,3.35-1.48,5.03-2.22.58-.26,1.14-.56,1.75-.73,1.87-.54,3.75-1.03,5.7-1.56.07,1.13-.48,2.09-1.55,3.24,1.13-.34,1.86-.56,2.6-.78.05.08.11.16.16.24-.21.23-.38.52-.63.67-.85.53-1.73,1-2.69,1.55.31.28.47.43.66.6-.12.25-.25.51-.42.87h1.48c-.2,1.12-1.37.92-1.97,1.75.67.13,1.27.25,2.21.43-1.19.56-2.08.99-2.96,1.41,0,.07.02.14.03.21h2.72c-1.4,1-3.24.84-3.24,2.72-.54.11-1.01.21-1.46.3-.04.19-.11.32-.07.41.31.85.26,1.17-.32,1.27-.73.12-1.48.18-2.38-.15.25-.34.41-.57.58-.81-.03-.07-.04-.2-.11-.27-.71-.66-1.51-.83-2.43-.44-1.69.72-3.41,1.37-5.06,2.16-.51.25-.84.88-1.27,1.36-.51-.04-1.06-.09-1.97-.16,1.37,1.2,2.67,1.83,4,2.35,1.64.65,3.33,1.18,5.2,1.84,1.57-.88,3.42-.72,5.25-.13.67.22,1.04.83,1.47,1.53-1.4.87-2.83-.53-4.08.27,1.02.79,1.02.78,2.26.64,1.94-.2,3.87-.57,5.83-.27.62.09,1.22.26,1.94.41-.08.39-.13.68-.21,1.07.3.29.66.63,1.06,1.01-.18.15-.32.36-.43.34-.88-.11-1.74-.3-2.62-.4-.69-.08-1.44-.19-1.94.83-.03.52-.07,1.29-.12,2.21,1.13-.08,2.34-.13,3.43.62,1.01.7,2.33.96,3.26,2.13-1.12.36-1.95.19-2.72-.6-.19.32-.31.52-.48.8.83.86,2.09.55,3.04,1.29.14.42.32.95.51,1.51-.23.2-.45.38-.73.61,1.08,1.21,2.15,2.41,3.26,3.66-.79.42-1.19,0-1.65-.35-.79-.61-1.61-1.18-2.41-1.77-.47-.62-1.02-1.01-1.89-.79.38,1.17,1.26.63,1.91.77.59.7,1.19,1.4,1.9,2.24-.57.18-.99.31-1.44.44-.05,1.23,1.19,1.44,1.62,2.23.43.77.77,1.59,1.2,2.5-.71.17-1.16-.12-1.46-.62-.41-.69-1.02-.88-1.73-.73-.7-.9-1.36-1.75-1.98-2.55-.57.42-1.06.79-1.63,1.2,1.7,1.67,3.41,3.45,4.43,5.83.14-.2.27-.37.49-.67,1.83,1.08,3.65,2.09,4.37,4.36.37,1.16.77,2.3,1.62,3.32.63.76,1.1,1.92.46,3.15-.5.95-.16,1.54.78,2.17.46.31.89.67,1.44,1.09.18-1.21-.45-2.41.23-3.7.86,1.02,1.03,2.16,1.46,3.16.22.52.28,1.11.49,1.63.41,1.04.72,2.16,1.98,2.59.24.08.4.46.56.72.45.76.88,1.52,1.54,2.22-.28-1.01-.51-2.04-.86-3.02-.71-1.96-1.43-3.93-2.25-5.85-.7-1.62-1.49-3.21-2.34-4.76-.37-.68-1.09-1.16-1.5-1.82-.4-.63-.54-1.42-.92-2.07-.85-1.48-1.81-2.9-2.67-4.38-.4-.69-.65-1.47-1.13-2.59.7.25,1.06.29,1.3.48.87.69,1.37,1.65,1.68,2.7.29.99.82,1.82,1.44,2.65.76,1,1.47,2.07,2.02,3.2,2.38,4.83,4.52,9.76,6.3,14.84.16.47.39.92.62,1.47.3-.13.51-.22.9-.4.46.38,1.02.84,1.52,1.26-.41,1.39-.99,0-1.5.32-.3,1.09.96,1.46,1.28,2.42-.4.13-.72.24-1.07.35,0,.18-.03.37,0,.54.8,3.71,1.67,7.41,2.37,11.14.37,1.98.26,4.06.68,6.03.36,1.73.22,3.4.03,5.09-.04.38-.33.72-.55,1.17-.88-.59-.74-1.34-.67-1.98.37-3.76-.05-7.46-.67-11.15-.37-2.18-.96-4.32-1.43-6.49-.13-.62-.45-1.02-1.21-1.16-.28,1.38.14,2.56.97,3.69-.28.27-.49.46-.67.63-1.26-.53-.9-1.63-1.08-2.5q-1.09-.74-1.73-2.73c-.21,2.12-.17,3.98.09,5.84.4.39.79.76,1.17,1.15.47.48.82.96,1.63,1.13,1.12.24,1.26,1.33.49,2.15-.4.42-.71.94-1.12,1.48-.68-.21-.59-.86-.65-1.37-.1-.77-.31-1.43-1.29-1.6.19.33.37.65.63,1.1-.67.64-1.08,1.43-.83,2.45.21.87-.3,1.42-.93,1.89q-1.36-.75-1.06-2.37c-.83.13-1.58.08-1.61-1.05-1.09.55-.21,1.92-1.33,2.58-.39-.94-.26-1.79-.16-2.62.09-.77.98-1.41.35-2.4-.3.03-.65.07-.95.1-.53-.66-1.12-1.26-1.54-1.95-.37-.61-.56-1.33-.86-2.08-.41.53-.84,1.13-1.32,1.69-.45.53-.94,1.01-1.44,1.54-.46-.14-.87-.27-1.32-.41-.07.19-.23.38-.19.51.22.76.48,1.51.75,2.35-.3.02-.53.11-.62.03-.47-.37-.91-.66-1.45-.14-.53-.6-1,.59-1.65.05-.2-.17-.95.31-1.44.51-.2.08-.49.16-.57.32-.67,1.4-1.88,1.74-3.28,1.7-.19,0-.37,0-.69,0,.72,1.1-.6,1.35-.76,2.09.09.91.88,1.13,1.66,1.51-.26.36-.48.65-.69.93l.03-.03c-.64.27-1.28.55-2.01.32-.83-.25-1.45.09-1.98.88.27.19.52.36.76.54.2.14.4.29.63.45-.03.47-.06.9-.09,1.33-.34.12-.63.23-.95.34.04.38.12.76.09,1.12-.06.8-.38,1.45-1.19,1.79-.58.25-1.12.61-1.71.83-1.26.49-2.22,1.18-2.33,2.67-.02.22-.23.42-.36.66.14.19.34.37.42.59.26.8.15,1.2-.65,1.45-.72.22-.88.6-.82,1.28.27-.18.51-.33.85-.55.31.38.62.74.98,1.18-.24.36-.39.71-.65.96-.48.47-.92.15-1.31-.3-.34.66-.63,1.2-.91,1.76-.13.26-.37.58-.31.8.32,1.21-.42,1.58-1.46,1.86.1.39.19.78.32,1.29.64-.23,1.15-.41,1.89-.67-.04.5.05.95-.11,1.09-.43.35-.98.54-1.48.81-.75.4-1.16.96-.93,1.85.1.37.24.77.18,1.12-.06.32-.31.71-.58.85-.4.2-.71-.08-.81-.52-.05-.23-.12-.46-.26-.97-1.16,1.56-1.63,3.02-1.47,4.83.42-.08.76-.14,1.19-.21-.08-.64-.16-1.19-.25-1.89,1.8-.43,3.28-1.75,5.32-1.82.07,2.24-1.97,2.14-3.09,3.08.16.48.32.93.48,1.41-.44.53-.88,1.05-1.37,1.63.29.42.57.83.89,1.29.36-.17.66-.32,1.14-.55.2,1.26.39,2.42.59,3.65.45.09.91.18,1.46.3-.2.51-.35.89-.51,1.32,1.03.55.73-.55,1.31-.86.52.21,1.18.47,1.95.77-.28.57-.47.95-.68,1.38.68.13,1.35.26,2,.38.21.66.4,1.25.61,1.93.57-.14,1.11-.27,1.72-.42-.03-.2,0-.42-.09-.5-.55-.47-.52-.96-.1-1.49.79-.08,1.59-.15,2.38-.23.88,1.31.77,2.02-.58,2.57-.65.26-1.01.83-.94,1.24.15.96-.44,1.58-.62,2.48.56-.43,1.12-.85,1.62-1.23,1.28.41.1,1.36.56,2.24.33-.68.55-1.13.79-1.64.45.39.79.68,1.25,1.08-.09.77-.19,1.64-.28,2.52-.12,1.27-.12,1.27-1.58,1.68-.21.68-.43,1.41-.64,2.11.33.37.73.68.95,1.09.22.42.27.93.44,1.59.78-.84.82-2.16,2.27-2.15.06.31.22.67.17.98-.13.81-.24,1.65-.57,2.38-.7,1.56-.57,2.94.58,4.22.21.23.38.49.57.73.13-.06.24-.09.33-.15.88-.61,1.47-.45,1.57.48.08.74.06,1.48.1,2.48,1.18-1.04,2.18-1.91,3.4-2.99.3-1.13.68-2.57,1.17-4.41.4.78.6,1.18.82,1.6.15-.35.3-.69.43-1,.65-.16,1.24-.3,1.88-.45.2.42.42.87.65,1.34,1.78.29,3.58.51,5.36,1.9-.24-.92-.37-1.43-.57-2.18.57,0,1.01.1,1.35-.03.36-.14.63-.51.86-.71,1.01.37,1.94.75,2.9,1.03,1.58.47,1.73.67,1.45,2.56.59.42,1.24.89,1.91,1.36.73.51,1.48.97,2.18,1.52.61.48.7,1.18.46,1.87-.23.64-.55,1.25-.9,2.02-1.62-.71-3.44-.79-5.27-1.09-.78,1.39-1.45,2.73-.91,4.27-.71,1.05-1.58.06-2.42.35v1.44c-.68.75-1.12.02-1.68-.04-.04.18-.15.38-.09.51.23.59.41,1.16-.18,1.89-.3-.44-.53-.76-.8-1.14-.4.05-.83.1-1.26.16-.12.19-.24.33-.31.5-.08.17-.05.43-.17.54-1.25,1.14-1.41,2.74-1.95,4.21-.63,1.72-.38,3.22.55,4.69.27.43.61.83.79,1.29.11.29-.05.68-.1,1.21,1.03.44.9,1.61.98,2.63.09,1.06.39,1.98,1.03,2.8.14.17.37.27.75.55.08-.77.14-1.34.21-1.99,1.33.18,1.52,1.28,2.02,2.08,2.38.02,4.43,2.28,4.04,4.45-.29,1.61-.4,3.25-.67,4.87-.11.68-.45,1.32-.7,2.03-.52.21-1.1.44-2,.79-.25-.34-.58-.78-.93-1.25-.17.23-.35.46-.58.77-.24-.34-.45-.64-.67-.94-.58.05-1.18.1-1.92.15-.34.63.29,1.73-.74,2.27-.74-.72-.72-1.58-.69-2.45.06-1.41-.05-2.78-.91-4.35,0,.85.04,1.4-.01,1.95-.05.56-.2,1.1-.26,1.66-.1.94-.14,1.89-.22,2.84-.15,1.59-.86,2.75-2.59,3.2-.26-.28-.54-.6-.82-.92-.11.08-.27.12-.3.21-.73,2.09-.73,2.25.08,3.71.1-.41.19-.67.23-.94.04-.23.04-.47.07-.79.27.07.55.08.58.16.15.47.31.95.32,1.43.08,2.28.09,4.56.2,6.84.04.71.34,1.42.58,2.33-.55.38-.07,1.67-1.19,2.08-1.09-.94-.36-2.03-.38-3.03-.02-1.07-.17-2.13-.27-3.23h-.95c-.08.16-.19.27-.19.37-.03,2.08-.07,4.17-.04,6.25.02,1.26.28,1.5,1.54,1.71.24.04.49.04.89.07v2.35c1.78,1.34,2.12,3.6,2.93,5.74.87-.62,1.67-1.2,2.43-1.75.51-1.08-.25-2.47,1.02-3.5.27.56.48,1,.79,1.66v-3.54c1.14.53,2.16,1,3.46,1.6-.27-.48-.39-.78-.58-1.02-.11-.14-.33-.17-.5-.27-1.44-.85-1.45-.9-1.07-2.96.44.24.83.45,1.26.69.27-.75,1.24-1.27,1.18-2.33-.04-.81-.11-1.62,0-2.46,1.04.89.83,2.29,1.63,3.53.19-.75.33-1.33.48-1.93,2.51,1.26,3.5,2.41,1.2,5.03.14.31.27.65.45.98.08.14.24.24.47.45.24-.85.45-1.59.72-2.55.52.46.84.75,1.16,1.03l-.03-.03c.09.16.21.32.26.49.41,1.68,1.69,2.28,3.21,2.59l-.04-.02c.31.62.63,1.23.84,1.64,1.06.34,1.91.61,2.85.9,0-.75-.68-1.08-1.1-1.55-.96-1.07-1.52-2.8-1.37-4.63,1.61.99,3.11,1.96,4.18,3.52.6.88.67.84,1.94.43-.44-.79-1.18-1.5-.79-2.66.33.12.67.14.84.32.67.67,1.33,1.36,1.9,2.11.56.73,1.24,1.18,2.36,1.49-1.06-1.67-2.55-2.85-2.59-4.89,1.08-.29,1.91.07,2.57.94.6.79,1.16,1.61,1.83,2.54.9-1.67-1.13-2.44-.75-3.97.27-.06.7-.3,1.03-.21.52.15,1.01.49,1.43.84.25.21.04.6-.66,1.35.25,2.2,2.48,2.29,3.71,3.5.1.77.21,1.56.31,2.33,1.35,1.03,2.3,2.58,4.18,2.66.24.64.43,1.16.69,1.87.49-.64.9-1.16,1.35-1.75-.48-.74-1.6-1.03-1.42-2.1.03-.18.33-.32.46-.42.81.5,1.53.94,2.36,1.46-.11,1.39.73,2.47,1.65,3.55.61.71,1.1,1.53,1.66,2.3.28.38.38.96,1.1.84.17-.03.47.36.6.61.39.71.73,1.46,1.14,2.3.22-1.89.19-2.18-.45-3.82,1.1-.1,1.66,1,2.49,1.13.9.14,1.52.75,2.66,1.14-.62-.87-1.04-1.45-1.48-2.07.25-.73.49-1.44.75-2.17,1.28.08,1.71,1.29,2.61,1.8.9.52,1.84.97,2.88,1.51.42-.97.75-2.14,2.15-2.07.51.59.08.96-.2,1.38-.51.78-.51,1.51.34,2.21.79-.94,1.7-1.53,2.97-1.35.27-.71.52-1.4.8-2.16,1.14.33,2.16.62,3.27.94.5-1.38-.95-2.33-.67-3.74.79-.16,1.64-.33,2.59-.52.05-.23.12-.58.22-1.09,1.1.64,1.85-.28,2.75-.57.86.83-.34,1.01-.44,1.66.72-.12,1.48-.33,2,.42.43.62,1.3-.16,1.53.22.44.74.86-.17,1.36.27.04.2.03.59.19.88.2.36.57.91.82.89.92-.09.88.74,1.34,1.23.29-.33.56-.62.83-.91.11.09.27.15.28.24.1.62.13,1.15.84,1.55.48.27.69,1.04,1.16,1.84v-1.79c.45.2.9.26,1.02.49.34.64.53,1.35.81,2.09.22-.14.55-.37,1.13-.75-.08,1.16.25,2.03.78,2.86.53.83,1.1,1.35,2.17,1.09.34-.08.73.06,1.06.1,1.53,5.2,2.77,5.83,4.94,6.94-.03.39-.07.82-.11,1.35.64.41,1.31.86,2.01,1.31.09.38.11.78.26,1.11.59,1.28.55,2.35-1.43,3.07.93.18,1.37.18,1.73.36.44.22.8.63,1.22.89.95.59,1.98.76,3.1.57.81-.13,1.68-.21,2.03.9.47-.18.9-.34,1.35-.51.4,1.5.34,1.57-1.94,2.19-.02.22-.05.46-.09.82.95.21,1.85.38,2.79.38.88,0,1.74.03,2.51-1.15v2.02c.75.06,1.47.12,2.18.18l.51.52c.27.4.41.87,1.09.91.41.02.8.45,1.31.75.5-.08.74-1.15,1.74-.66-.17.43-.34.86-.55,1.38h1.47c-.34.69-.6,1.21-.87,1.76.54,1.41,1.04,2.82,2.43,4.23-.1-.92-.15-1.47-.21-2.06.69-.38,1.4-.76,2.13-1.16,1.1.78.49,1.9.7,2.9.84.64,1.67,1.43,2.64,1.99,1.09.63.84,2.34,2.32,2.66.24-.29.46-.57.76-.94.62.34,1.27.7,1.92,1.05.23-.22.45-.43.75-.72.25.19.49.36.77.57-.82,1.89-.74,3.81-.73,5.77h1.2c.04.25.08.48.13.81.7-.19,1.39-.37,2.39-.64-.25.55-.38.84-.57,1.25.24.05.5.1.88.18-.09.58-.18,1.17-.28,1.83,1.13.28,2.47.28,2.31,1.95.51-.14.92-.26,1.4-.39.28.34.53.66.89,1.09.31-.48.57-.87.83-1.27.83,0,.99.64,1.25,1.22.35.78.88,1.36,2.01,1.24.25-.45.54-.99.92-1.68.29-.04.71-.09,1.21-.15-.03-.29-.06-.57-.11-1.01.73.23,1.4.43,2.18.68.15-.59.27-1.1.43-1.74.4.12.69.2,1.13.33-.27-.75-.56-1.38-.72-2.04-.1-.4-.09-.87.02-1.26.05-.18.47-.26.9-.48-.17-1.14-.36-2.43-.56-3.72-.11-.69-.3-1.37-.36-2.06-.12-1.4-.29-2.84,1.26-3.64-.67-2.78-.86-5.41.23-8.07h1.77c-.22-.7-.38-1.28-.59-1.86-.68-1.87-1.15-3.73-.37-5.72.19-.47.03-1.09.03-1.82.39.08.78.21,1.17.22.35,0,.7-.12,1.09-.19.28.37.54.71.8,1.06-.14.22-.2.47-.34.52-.57.2-.94.44-1.04,1.15-.05.41-.57.76-.87,1.11.07.57.31,1.18.16,1.66-.36,1.14.25,1.92.74,2.78.03.05.08.1.13.14,1.18,1.01,1.49,2.16.37,3.59-.8-.29-1.65.25-2.69.31.32,1.88-.29,3.8.66,5.59.13.25.03.62.08.93.11.75-.47,1.28-.61,1.92-.13.57.28,1.27.12,1.83-.37,1.28-.27,2.51.08,3.74.27.96.29,1.9-.14,2.78-.39.82-.31,1.61-.09,2.4.36,1.32.29,2.54-.6,3.67-.16.2-.12.58-.1.87.11,1.17-.23,2.22-.55,3.33-.47,1.62-.6,3.34-.97,5-.39,1.73-.58,3.54-1.61,5.07-.14.21-.28.43-.35.67-.61,1.94-1.54,3.71-2.95,5.2-.17.18-.27.43-.35.67-.8,2.32-2.52,3.58-4.73,4.48-2.35.96-4.85,1.24-7.25,1.96-1.18.35-2.49.47-3.71.36-.87-.08-1.58.19-2.37.3-1.62.23-3.28.44-4.91.37-1.6-.07-3.17.18-4.77.1-3.03-.17-6.02-.38-8.86-1.62-1.85-.81-3.76-1.45-5.66-2.14-.44-.16-.93-.18-1.4-.24-.95-.13-1.64-.74-2.42-1.21-1.74-1.05-3.69-1.26-5.68-1.17-.63.03-1.26.12-1.89.11-1.47-.01-2.81.23-4.1,1.1-1.57,1.06-3.44,1.54-5.3,1.92-1.62.32-3.22.65-4.67,1.51-.98.58-2.03.61-3.11.18-2.31-.94-4.78-1.23-7.22-1.54-1.53-.19-3.1-.02-4.66.06-1.97.09-3.9.02-5.83-.54-1.76-.51-3.58-.69-5.44-.59-2.59.14-5.19.09-7.79.16-2.59.06-5.17.13-7.75.27-.94.05-1.86.32-2.8.44-1,.13-2.01.25-3.02.29-2.15.08-4.31.2-6.46.14-1.9-.06-3.62.54-5.34,1.15-.75.27-1.46.75-2.08,1.27-.9.75-1.91,1.18-3,1.55-2.74.95-5.43,2.06-8.17,3.01-1.3.45-2.67.71-4.02,1.01-1.24.27-2.5.44-3.35,1.55-.07.09-.21.17-.32.19-2.51.57-4.46,2.36-6.84,3.19-1.37.48-2.8.76-4.2,1.16-1.93.56-3.86,1.13-5.77,1.75-1.01.33-1.97.83-2.98,1.17-.59.2-1.24.33-1.86.32-1.64-.05-3.24-.23-4.84-.76-2.58-.85-5.23-1.48-7.88-2.09-2.61-.6-5.08-1.44-7.29-3.02-2.12-1.51-4.45-2.68-6.85-3.65-2.03-.83-3.95-1.99-6.19-2.25-1.43-1.01-3.08-.67-4.66-.73-.88-.03-1.76-.1-2.63-.2-1.42-.17-2.76.26-4.11.53-.37.07-.72.28-1.09.32-2.01.23-4.02.59-6.03.62-3.57.04-7.04.66-10.53,1.3-2.22.41-4.35.19-6.54-.36-3.18-.8-6.41-1.28-9.73-1.32-2.68-.04-5.38-.32-8.03-.78-1.24-.21-2.52-.9-3.53-1.69-1.59-1.24-2.84-2.85-3.74-4.7-.77-1.58-.47-3.32-.79-4.96-.14-.73-.15-1.48-.23-2.22-.08-.68-.16-1.36-.26-2.04-.14-.91-.39-1.8-.44-2.71-.05-.86.27-1.77.12-2.6-.44-2.33-.83-4.65-2.26-6.72-.89-1.29-1.83-2.74-1.88-4.48,0-.18-.04-.45-.16-.53-1.49-1.02-1.57-2.95-2.74-4.21-.79-.85-1.29-1.98-1.92-2.99-1.04-1.64-2.19-3.22-3.1-4.93-1.51-2.86-3.45-5.49-4.64-8.53-.42-1.08-1.23-2.01-1.77-3.05-.43-.83-.73-1.73-1.1-2.59-.15-.34-.29-.68-.49-.99-1.09-1.68-2.14-3.39-3.31-5.01-.79-1.1-1.77-2.06-2.67-3.08-.74-.84-1.62-1.49-2-2.68-.41-1.3-1.25-2.46-1.86-3.69-1.08-2.15-1.71-4.46-2.25-6.8-.57-2.48-.33-4.99-.31-7.5,0-1.29-.35-2.58-.07-3.89.13-.61.13-1.24.52-2.11-.33-.34-.67-.69-1-1.03-.09.09-.18.18-.27.27,0-.12-.01-.24.03-.35.22-.58.44-1.16.68-1.74.27-.65-.2-.9-.7-1.23.2-.75.4-1.51.08-2.33-.27-.69-.39-1.43-.6-2.23-.43-.06-.9-.13-1.56-.23.47-.77.85-1.4,1.25-2.05-.6-1.61-.66-1.71-1.31-2.27.15-.75.13-1.51.02-2.32-.15-1.19.07-2.53.52-3.65.27-.67.33-1.34.38-1.97.04-.58-.48-1.18-.67-1.8-.18-.59.67-1.2.09-1.76-.6-.58.25-.71.24-.91-.32-.9-.54-1.65-.86-2.36-.08-.19-.7-.27-.69-.34.09-.65-.62-1.15-.18-1.89.67-1.13,1.18-2.36,1.78-3.61-.25-.21-.53-.43-.91-.74.12-.48.24-.99.4-1.65q.68.99,1.47,1.34c-.26,1.66-.53,3.3-.8,5.03.48.13.77.2,1.1.29.04.17.15.37.1.52-.24.83-.05,1.61.14,2.42.14.6.21,1.25.16,1.86-.11,1.22-.01,2.39.34,3.57.46,1.51.88,3.02,1.26,4.55.09.34-.04.73-.07,1.22.73.25,1.49.5,2.34.79-.08.52-.15.98-.21,1.41.67,1.12,1.94.79,2.98,1.41.42-.75.81-1.44,1.23-2.17.78-.41,1.62-.84,2.42-1.26-.11-1.99.88-3.37,2.17-4.63.3.05.6.1.96.16.56-1.43,1.13-2.87,1.71-4.37.43-.03.8-.06,1.28-.1.43-.27.3-1.13,1.1-1.28.52-.1.96-.55,1.57-.92-.39-.45-.7-.81-1.08-1.24.06-.28.13-.64.22-1.05h1.48c.61-1.05,1.19-2.04,1.85-3.18-.18-.26-.46-.66-.72-1.02-.64.08-1.17.14-1.94.24.25-.54.41-.86.55-1.18.31-.76.69-1.5.88-2.29.16-.67.13-1.39.92-1.6-.29-1.4-1.5-2.31-.99-3.72-.73-.22-1.33-.4-2.05-.62.2-1.28-1.49-2.39-.26-3.93-1.25-1.32-.23-2.64.17-4.06-.43-.81-.47-1.93-1.73-2.3.07-.5.14-.99.22-1.55.38-.08.73-.15,1.29-.27.03-.47.29-1.12.07-1.51-.6-1.09.2-1.78.53-2.61.06-.15.29-.23.43-.36,1.31-1.26,2.3-2.62,1.23-4.34.48-1.43,1.43-2.49,1.13-3.95-.05-.24.19-.61.4-.82,1.38-1.37,1.83-2.98,1.36-4.87-.03-.11.03-.25.07-.46.36-.33.77-.72,1.15-1.07-.43-1.97-.54-3.85.65-5.58.11-.15.24-.33.25-.5.11-1.73,1.16-2.89,2.13-4.24,1.09-1.52,2.49-2.41,3.96-3.33,1.18-.74,2.4-1.41,3.62-2.12.11-.45.17-.9.35-1.29.21-.45.45-1.13.8-1.23,1.7-.44,2.22-2.19,3.55-2.9.01-2.19.15-2.3,2.87-2.24.96-1.32,1.98-2.74,3.1-4.28.58.33,1.1.63,1.72.98.16-.33.34-.69.57-1.17.62.52,1.03,1.25,1.9,1.15.75-.09,1.5-.11,2.38-.17v-1.75c.48.17.79.27,1.21.42.1-.31.21-.68.37-1.19.37.3.64.52.96.79.19-.25.37-.5.55-.75q.73.79.89,2.2c1,.42.65-.94,1.58-1.01.2.05.67.16,1.07.26.4-1.01.28-2.15,1.07-3.01.9.77-.35,1.48.16,2.2.53.28.72.02.88-.51.34-1.1.37-1.09,1.45-1.2.62.81.04,1.48-.18,2.24-.2.7-.04,1.49-.04,2.37.37.06.7.12,1,.18.12-.19.26-.34.23-.39-.35-.52-.34-1.05-.17-1.63.61-2.08,1.13-4.17.14-6.3-.09-.2,0-.48.02-.72.3-2.51.56-5.03.94-7.53.11-.7.57-1.34.93-2.16-.12-.22-.34-.59-.59-1.03.67-1.34,1.57-2.59,1.74-4.15.08-.75.36-1.47-.17-2.19-.15-.21-.2-.7-.06-.89.67-.92.22-1.81.06-3.18-.52,1.41-.66,2.56-1.71,3.29-.36-.12-.76-.25-1.26-.41-.27.19-.62.44-1.09.77-.44-.32-.88-.64-1.42-1.03-.64.05-1.39.11-2.14.16-.23.28-.46.56-.69.85-.24-.06-.47-.06-.59-.17-.32-.3-.72-.6-.84-.98-.38-1.19-1.24-1.28-2.26-1.19-.49.04-.98,0-1.62,0,.08-.48.05-.88.22-1.16.63-1.02,1.3-2.02,2.01-3,.62-.86,1.29-1.71,2.49-1.51.5-.66-.08-.93-.34-1.33-.32-.51-1.36-.45-1.15-1.3.14-.58.55-1.1.84-1.66.06-.11.08-.23.13-.39-.95-.63-1.35.83-2.34.5-.8-.94-.55-2.12-.17-3.26.41-1.25.93-2.47,1.4-3.71.12-.33.22-.67.4-1.22-.74.27-1.23.45-1.82.67-.47-1.31.57-1.72,1.2-2.44,0-.24.06-.57-.01-.86-.21-.88.06-1.59.55-2.31.59-.88,1.09-1.82,1.6-2.68-.9-1.03-1.25.44-2,.12-.56-.32-.62-.9-.2-1.39,1.62-1.89,1.37-4.25,1.82-6.46.49-.66,1-1.38,1.54-2.08.94-1.19,1.9-2.37,2.86-3.54.44-.54.93-1.05,1.31-1.62.13-.19,0-.55-.03-1.16-1.27,1.21-2.5,1.9-4.12,1.9-.76-.95-1.1-1.92-.31-3.06.14-.21.35-.44.35-.66.1-2.55,2.04-4.11,3.21-6.08.09-.16.23-.29.21-.61-.39.35-.81.66-1.15,1.05-.54.6-1.07.44-1.82.1,1.23-2.54,2.62-4.81,4.61-6.68.52-.36,1.03-.72,1.55-1.07Zm18.73,126.96c-.65.36-1.3.71-1.91,1.05-.14.97-.27,1.83-.4,2.75.78-.04,1.54-1.03,2.13-.02-.26.78-.85,1.6-.66,2.15.37,1.05-.23,1.63-.63,2.2.36.82.66,1.5.95,2.19.16-.83.32-1.68.46-2.43.87-.18,1.69-.35,2.5-.52.16-.87.29-1.6.42-2.35-.87-.66-1.7-1.28-2.67-2.02,0-.38.2-1.22-.03-1.36-.89-.54-.24-1.1-.19-1.65.26-.53.53-1.07.84-1.69-.43-.08-.71-.13-1.2-.21.15.74.26,1.33.38,1.92Zm61.98,25.08c-.6.05-1.2.11-1.86.17-.93,2.29-.62,4.51.39,6.84.9-.87,1.7-1.64,2.5-2.42.35.08.69.17.98.24.31-.69.59-1.31.82-1.83,1.37-.28.81,1.01,1.29,1.49,1.14-1.36.49-3.05,1.14-4.41,1.23.31,1.56,1.26,1.81,2.16.92-.03.84-.62.82-1.1-.09-1.87.24-3.65,1.03-5.35.08-.16.05-.37.09-.67-1.14-.45-1.07-1.5-1.11-2.51-.07-1.76.25-3.54-.4-5.27-.12-.31-.03-.78.14-1.09.62-1.13.25-2.04-.49-2.96-.45.02-.86.05-1.26.07-.29,3.02-.59,3.73-1.81,4.29-.63-.55.13-1.83-1.06-2.15-.69,1.09-.86,2.25-.85,3.46.01,1.41-.35,2.71-1.02,3.65.24,1.14.5,2.09.63,3.06.09.69.08,1.37.61,1.94.18.2.18.58.26.87l.04-.02c-.36.11-.72.22-1.17.35-.31,1.27-.67,2.54-.92,3.84-.23,1.13-.93,1.82-1.95,2.53-.49-1.34-.47-2.43.43-3.42.46-.51,1.09-.93.91-1.76.43-.71.52-1.46.24-2.51-.39.48-.64.78-.83,1.02.24.58.42,1.04.61,1.5Zm-78.73,19.4l-.03-.03c-.08.93-.16,1.86-.24,2.78.37.17.69.32,1.15.54v4.26c.11.03.22.06.33.09.68-1.15,1.35-2.3,2.04-3.47-.49-.2-.93-.37-1.48-.59.88-2.32,1.71-4.52,2.49-6.59.66-.29,1.15-.23,1.25.31.29,1.53.84,3.13-.7,4.21.52,1.56,1.32,2.66,2.94,2.84,0-.75-.1-1.51.03-2.23.14-.79.5-1.53.77-2.3.02-.05.04-.13.02-.16-.78-1.06.3-1.38.88-1.87-.18-.31-.3-.52-.41-.73-.44.23-.83.44-1.24.66-.76-1.67-.68-2.03.68-3.36.16.06.34.12.51.19.21.08.43.17.64.26.82-1.12.55-2.8,2.21-3.25-.38-2.12.48-3.7,1.79-5.11.98.68.98.68.96,1.48-.02,1.08-.05,2.15-.05,3.23,0,.71.25,1.28,1.06,1.73.48-1.65.92-3.15,1.39-4.76.48.16.91.3,1.6.53-.15-3.21-.04-6.22,1.01-9.12-.77-.56-1.42-1.03-2.06-1.5.53-1.77,1.55-3.35,1.03-5.2-1.17.65-.46,2.25-1.67,2.84-1.66-1.73-1.31-3.71-.82-5.71-.43-.04-.79-.07-1.31-.11-.13-.79-.26-1.56-.4-2.42-.6.19-1.18.37-1.6.5-.56.86-.05,2.15-1.48,2.36-.4-1.11-.09-2.36-1.1-3.12-.09-.07-.02-.36-.02-.55,0-.56,0-1.12,0-1.61-.64.87-1.29,1.76-1.93,2.63.14.45.26.84.41,1.31-1.42.32-2.58.76-2.62,2.39,0,.26-.3.55-.51.77-1.21,1.26-1.59,2.76-1.72,4.48-.19,2.41.12,4.99-1.71,7.03-.14.16-.22.51-.15.71.14.4.39,1.07.61,1.07,1.86.05,1.51,1.41,1.47,2.47-.04,1.12-.2,2.26-.49,3.34-.3,1.13-.68,2.28-1.47,3.09-1.32-.07-.48-1.12-.94-1.64-.13.26-.28.43-.26.58.15,1.32-.49,2.3-1.29,3.24-.49.58-1.04,1.17-1.3,1.86-.43,1.15-1.15,1.91-2.22,2.23-.69,2.3-.27,4.69-1.25,6.51.05.98.25,1.75.1,2.42-.47,2.03-1.07,4.03-1.63,6.04-.19.71-.39,1.42-.57,2.09.7.23,1.22.4,1.76.58.16-.22.34-.4.46-.62.68-1.28,1.38-2.55,1.98-3.87.23-.49.36-1.1.3-1.63-.13-1.09-.14-2.14.33-3.16.13-.28.16-.61.17-.93.05-1.64.11-3.28.09-4.91-.01-1.01.42-1.83.9-2.66.31-.55.78-.57,1.31-.44Zm-3.8-22.08q1.07-.83,2.01-.84c1.81-3.77,3.59-7.5,5.39-11.24-.2-.03-.32-.05-.44-.07-1.2-.19-2.3-.45-2.06-2.08.02-.14-.12-.33-.23-.47-.44-.58-.9-1.15-1.49-1.89-.58-.06-1.38-.15-2.1-.23-.6-.62-.5-1.2-.2-1.82.03-.06-.08-.2-.11-.26-.38-.05-.73-.11-1.09-.16v-1.33c-1.01.83-1.88,1.53-2.75,2.24-.57-.28-1.07-.53-1.37-.68-1.27.7-2.37,1.3-3.46,1.92-.27.15-.57.31-.75.54-.95,1.23-1.95,2.44-1.97,4.1-.75.32-1.42.62-2.18.95.28.62.5,1.12.79,1.77-.44.34-.81.8-1.29.98-.73.27-.9.79-.99,1.35.23.39.42.71.53.89-.4,1.88-1.87,2.62-2.98,3.75-.29-.3-.49-.51-.7-.74-.32.22-.61.42-.88.61.11.47.19.83.27,1.16-.09.15-.13.28-.22.36-.9.9-1.8,1.68-1.94,3.18-.14,1.45-1.29,2-2.81,1.85.71.96,1.41,1.91,2.26,3.06-1.07.56-1.59,1.36-1.71,2.4h-2.03c-.77,1.48.31,3.42-1.37,4.54.94.9,1.78,1.7,2.65,2.54.42-.57.83-1.1,1.32-1.75.61.27,1.15.5,1.63.71,0,.4.05.6,0,.77-.62,1.92-1.05,3.92-2.5,5.46-.69.73-1.15,1.55-.17,2.47.14.13.15.47.11.7-.21,1.26.55,1.99,1.44,2.6.86.59,1.8,1.08,3.14,1.87-.83.46-1.44.79-1.97,1.09.36.71.56,1.09.67,1.32,1.03.23,1.88.44,2.74.61.16.03.35-.08.58-.13.08-.49.15-.96.21-1.31.8-.64,1.39-.38,1.91.19.68-.6,1.33-1.17,2.01-1.77-1.16-.74-1.92,1.1-3,.34-.56-1.7-.11-2.68,1.88-4.1,1.19.27.38,1.6,1.14,2.22.45-.43.85-.81,1.26-1.2-1.54-1.62-1.29-3.29.9-4.65-.18-.49-.37-.97-.54-1.42-.34.62-.58,1.3-1.02,1.81-.48.56-.93,1.02-1.26,1.76-.39.89-1.38,1.61-2.51,1.81-.69.12-1.09-.24-1.1-.94,0-.59.27-1.06.8-1.14.83-.12,1.14-.75,1.53-1.29,1.19-1.64,2.26-3.34,2.93-5.29.34-1,.85-2.01,1.54-2.79,1.16-1.32,1.95-2.97,3.53-3.94.38-.23.53-.84.77-1.28.55-1,1.07-2.12,2.11-2.62.73-.35,1.06-.78,1.3-1.46.14-.42.27-.88.55-1.2.85-.99.98-2.15.9-3.37.14-.15.28-.3.42-.44Zm20.1-69.03c-.25,3.49,0,4.08-2.74,5.77-.66.41-.58,1-.59,1.53.74.47,1.7.03,2.18,1-.71.8-1.01,2.05-2.49,1.91-.21-.02-.51.14-.65.31-.52.67-1.2.87-2.06.66-.31,1.55-.85,2.79-2.57,2.9-.24-.18-.48-.37-.79-.59-.49.6-.96,1.19-1.43,1.78-.43.54-.77,1.17-1.28,1.62-2.09,1.83-2.84,2.92-3.57,5.28-.24.77-.55,1.52-.88,2.42.72.59.43,1.4.31,2.23-.15,1.01-.22,2.04-.32,3.06.69-.66,1.05-1.47,1.59-2.13.58-.71,1.33-1.29,2.05-1.97-.39-1.23-.18-2.32.85-3.21.16-.13.31-.43.27-.61-.16-.74.36-.99.82-1.34.8-.6,1.72-1.09,2.13-2.1.07-.18.33-.29.63-.55.54,1.76-.47,2.6-1.6,3.45.11,2.04.46,4.12-.37,6.03,1.32,1.37,1.24,1.33.52,2.98-.39.9-.5,1.93-.68,2.91-.04.23.17.5.36.98.35-.55.63-.84.72-1.18.38-1.38,1.33-1.71,2.6-1.45.21-.53.39-1,.63-1.61-.94.21-1.31,1.26-2.38.72,0-.39-.12-.91.03-1.32.19-.51.54-1.26.93-1.34.9-.19,1.22-.72,1.58-1.43.17-.33.71-.73.99-.67.42.09.83.5,1.1.88.24.33.21.84.43,1.2.46.78.75,1.58.7,2.51-.02.28.12.57.22.98,1.48-.7,1.35-2.79,3.05-2.99.17-.79-.13-1.78.95-2.09.45.15.91.3.94.31,1.5-.39.78-2.13,2.25-2.26.14.19.44.41.41.58-.16.96-.4,1.91-.59,2.74-.25.16-.35.26-.46.3-.29.11-.59.2-.89.29-.29.09-.67.09-.86.28-.98,1.01-2.21,1.87-2.16,3.54.03.88-.14,1.77-.14,2.65,0,1.73-.27,3.4-.89,5.02-.19.5-.27,1.04-.49,1.95.91-.4,1.44-.63,2.04-.89-.87-2.04.08-3.89.05-5.77,0-.26.41-.52.66-.81.6.88.63.88.52,1.6-.14.89-.25,1.72.43,2.51.28.33.26.94.32,1.43.07.53.08,1.07.12,1.66,1.02-.22,1.43-.7,1.44-1.62,0-.55-.41-1.29.48-1.69.18.16.45.29.53.49.59,1.4,1.07,2.83,1.02,4.4-.02.61.1,1.23.18,1.84,0,.06.14.11.22.18.24-.53.47-1.05.69-1.54.93-.45,2.22-.56,1.84-2.26-.62.42-1.12.75-1.6,1.07-.88-.67-.89-.67-1-1.1-.63-2.39-.01-4.61.82-6.95.46.13.84.24,1.17.33-.08.93-.15,1.72-.25,2.86,1.23-1.04,1.63.3,2.4.35.84.06,1.67.08,2.47.66.13-1.01.17-1.84.34-2.64.26-1.17.34-2.51,1-3.42,1.14-1.58.83-3.35,1.4-5.11-.71.11-1.23.19-1.84.28.02-1.39.06-2.54,1.2-3.48.77-.63,1.17-1.63.57-2.73-.24-.44-.33-.97.14-1.41.12,0,.25.02.36,0,.16-.04.31-.11.41-.14,0-.53-.02-.98,0-1.42.07-1.63.55-1.9,2.18-1.41.47.14.99.63,1.68.06-.51-.52-.97-.99-1.49-1.53.38-.91.83-1.76,1.07-2.66.23-.88.24-1.81.38-3,.45.37.66.55.87.72.19.16.39.31.87.7-.87-2.52-1.61-4.65-2.42-6.96-.23.94-.24,1.98-1.48,1.92-1.05-.7-.75-1.94-1.13-2.94-1.23-.5-2.32-1.12-1.76-2.77.05-.15.02-.43-.08-.51-.7-.6-.48-1.47-.51-2.28-.22.09-.32.1-.33.15-.07.17-.13.35-.16.53-.29,1.65-.53,1.8-2.08,1.2-.08-.03-.1-.21-.17-.38.26-.3.53-.63.85-1-.18-.44-.37-.88-.62-1.48-.65.46-1.19.86-1.82,1.31.11.67.16,1.29.31,1.9.16.65-.23,1.07-.5,1.57-.34.62-.79.97-1.56.69-1.05-1.57-1.32-3.3-.97-5.31-.67-.21-1.3-.41-1.96-.62-.53.8-.86,1.62-1.46,2.12-.57.47-1.41.6-2.27.94-.11.21-.3.59-.5.98-.27-.08-.46-.13-.63-.2-.22-.08-.44-.18-.81-.33Zm96.23,109.81c-.14-.94-.49-1.78-1.73-1.92-.08.49-.23.92-.19,1.33.08,1.04.25,2.08.4,3.24-.23.11-.53.26-1.04.5-1.07-2.27-2.37-4.3-2.75-6.91-.27.3-.49.51-.67.74-.23.29-.44.6-.7.97.24.11.4.19.55.25,1.11.45,1.78,1.86,1.03,2.22-.31-.24-.62-.49-.92-.73-.96.9.48,1.56-.02,2.47-.37.18-.85.41-1.3.62-.23-.29-.37-.47-.57-.73-.51.7,0,1.13.21,1.68.95-.33,1.82-.12,2.25.8.44.94-.32,1.63-.97,2.44.66.71.49,1.99,1.84,2.47,0-1.13-.04-2.08.01-3.02.05-.87-.33-1.9.67-2.54.89.38.82,1.14.96,1.79.15.68-.44,1.42.3,2.43.18-.78.27-1.24.41-1.69.04-.15.22-.25.57-.64.31.57.58,1.07.86,1.58.77-.74,1.38-.74,1.91-.27.84.76,1.61,1.59,2.43,2.37.4.38.86,1.02,1.28,1.02,1.18,0,1.71.99,2.6,1.39.24.11.48.47.51.74.22,2.1,1.41,3.55,3.04,4.74.68.5.67.79-.07,1.74-.72-.49-1.45-.99-2.17-1.48-.03.22-.04.39-.06.56-.84-.1-1.63-.18-2.42-.3-.31-.05-.63-.12-.89-.27-.94-.52-1.67-1.63-3.02-.97-.14.07-.44-.2-.66-.32-.3-.16-.59-.31-.89-.47.63,1.09.2,2.16.15,3.24.31.07.55.12.79.19,1.43.37,1.66.95.89,2.28-.25.42-.5.84-.7,1.19.21.77.39,1.5.61,2.21.1.32.5.75.4.9-.69,1.05-.03,1.78.47,2.57.7,1.11,1.64,2.07,1.99,3.39.17.66.33,1.33.51,2.02.61.22,1.28.32,1.77.66.78.55,1.41.31,2.1-.1.48-.28,1.02-.48,1.5-.78.33-.21.58-.52.88-.81.24.23.51.47.75.7.55-.28,1.03-.52,1.6-.81.29.63.51,1.12.73,1.6-.39.3-.68.52-1.23.94,1.56-.18,2.61-.54,2.87-2.08.57.16,1.03.28,1.52.42.17,1.09.32,2.08.49,3.13.9.31,1.78.62,2.62.91.38-.31.7-.56,1.16-.93v2.08c.71-1.21.34-2.12.53-2.94.38-1.59-1.15-2.45-1.41-3.75.23-.44.43-.82.66-1.26-1-1.31-1.47-2.78-1.62-4.39-.06-.65-.49-1.27-.76-1.93-.54.14-.95.27-1.38.34-.15.02-.32-.12-.56-.21.15-.45.28-.85.44-1.35-.39-.36-.99-.66-1.17-1.13-.62-1.57-1.92-2.26-3.31-2.91-.27-.13-.49-.37-.82-.64.36-1.3-.37-2.29-1-3.32-.86-1.4-1.68-2.83-2.48-4.27-.27-.49-.55-1.05-.55-1.58,0-.76-.3-1.33-.66-1.93-.3-.48-.67-.97-.78-1.5-.17-.8-.59-1.37-1.2-1.85-.2-.15-.47-.34-.51-.54-.27-1.45-1.55-1.74-2.6-2.23-1.09-.5-2.23-.87-3.46-1.35Zm-116.44-90.45c-.1-.84-.03-1.55.39-2.23.41-.66,1.1-1.19,1.1-2.26-1.82,1.21-2.31,3.18-3.56,4.53.28.46.5.83.69,1.14-.24.45-.42.8-.67,1.26.59-.16.99-.31,1.41-.38,1.57-.23,1.58-.22,1.94-1.94-.41-.04-.82-.08-1.31-.13Zm10.92-95.37c-1.61,1.44-2.86,2.56-4.17,3.73.35.51.24,1.24,1,1.52.52-.23.83-.91,1.6-.72.22.05.76-.45.85-.78.28-1.07.43-2.18.71-3.75Zm111.79,202.06c.49-.09.93-.16,1.39-.24-.88-1.62-1.7-3.13-2.56-4.73-.53.44-.95.79-1.43,1.18.91,1.31,1.76,2.56,2.61,3.79Zm-105.75-68.54c.13-.96.3-1.76.34-2.56.04-.78.4-1.28,1.06-1.63.07-.04.07-.21.11-.37-.3-.35-.61-.72-1.03-1.22-1.44,1.32-1.47,2.92-1.44,4.53,0,.53-.06,1.16.96,1.25Zm22.35-177.37c1.18.28,2.01-.13,2.9-.51-.01-.31.07-.64-.06-.78-.29-.31-.65-.59-1.03-.76-.42-.18-.91-.22-1.5-.35-.12.91-.21,1.62-.31,2.39Zm56.82,68.82c.04-.32.1-.51.08-.68-.03-.18-.1-.4-.23-.5-.91-.67-1.63-1.49-2.08-2.55,0,1.67.85,2.78,2.23,3.72Zm-87.67-49.55c-.94-.69-1.99-.41-3.11.81.95-.39,2.11.2,3.11-.81Zm86,210.1c.22-.08.48-.17,1.08-.38-.78-.05-1.22-.07-1.74-.1-.06,1.28.03,2.39.66,3.43v-2.94Zm3.49-142.46s.05.1.07.15c.34-.87,1.32-.45,2-.95-.19-.28-.34-.51-.55-.82-.72.44-1.66.49-1.53,1.63Zm-82.66,40.82c-1.09,0-1.41.5-1.7.95-.25.39-.27.83.41,1.08.38-.6.77-1.2,1.3-2.03Zm68.95-69.54c.75-.97.66-1.98,0-3.23v3.23Zm-8.96,37.7c.41-.22.76-.4,1.46-.77-1.01-.26-1.63-.41-2.68-.68.58.69.88,1.05,1.22,1.45Zm-22.83-112.84c-.73.39-.73.9-.64,1.38.08.42.02.97.64,1.2v-2.59Zm63.55,260.63c-.84.42-1.29.64-2.07,1.02.75.25,1.17.4,1.65.56.12-.47.22-.81.42-1.58Zm-43.76-213.7c-.03.14-.06.27-.09.41,1.06.04,1.96.74,3.11.44-1.01-.28-2.01-.56-3.02-.85Zm-14.52-45.38q.08-1.66-.91-2.39c.32.83.57,1.51.91,2.39Zm2.65-9.78c-.15-.54-.29-1.09-.44-1.63-.43.68-.58,1.3.44,1.63Zm41.17,251.3c.24-.43.47-.84.84-1.51-.58.08-1.04,0-1.19.18-.4.46-.13.91.35,1.32Zm-67.59-228.32l-.12.47c.54.26,1.04.73,2.1.11-.88-.26-1.43-.42-1.98-.58Zm62.48,83.85c.02.43.04.86.06,1.36,1.15-.55.64-1-.06-1.36Zm36.79,184.14c-.65.38-.99.58-1.59.93.62.2.96.31,1.42.45.06-.43.09-.72.18-1.39Zm-118.58-114.35c.76-.08,1.17-.33,1.34-1-.98-.37-1.04.33-1.34,1Zm104.4,89.51c-.06-.64-.26-1.22-1.34-1.49.64.71.99,1.1,1.34,1.49Zm-51.72-128.35c.14-.05.28-.1.41-.15-.15-.47-.29-.93-.47-1.51-.69.78,0,1.15.06,1.65Z"/>
            <path d="m433.13,510.13c-.21.52-.42,1.04-.63,1.56-.19.46-.37.92-.64,1.59-.65-.78-1.18-1.42-1.71-2.07-1.23.53-.69,2.12-1.9,2.7-.17-.27-.45-.53-.49-.83-.09-.62-.02-1.27-.07-1.9-.09-1.1-.37-1.35-1.73-1.64-.52-2.46.34-4.67,1.38-6.85.57-1.2,1.15-2.4,1.63-3.63.22-.56.2-1.2.33-2.03-.77.43-1.31.72-1.88,1.04-.61-.53-.48-1.08-.19-1.57.27-.48.59-.97,1.01-1.29.2-.15.73.03,1.04.19.25.14.42.46.59.73.88,1.44,2.13,1.67,3.6,1.09.62-.24,1.1-.25,1.45.57-.68,1-2.13.5-3.19,1.51.47.21.87.39,1.18.52-.13.74-.21,1.22-.29,1.67.17.09.27.18.39.19.82.13,1.28-.37,1.7-.96,1.29-1.82,2.91-3.32,4.93-5.08-.93,1.5-1.63,2.6-2.3,3.73-.7,1.17-.72,2.77-2.43,3.38,1.56,1,.24,1.95.22,3.13.37-.23.77-.33.87-.56.61-1.44,1.9-1.86,3.22-2.46-.03.42-.04.66-.07,1.03.96-.44,1.87-.85,2.84-1.3.09.17.2.31.24.47.05.17.03.36.05.56.48.16.94.31,1.4.46.1,1.1-.96,1.34-1.31,2.07.15.65.79.7,1.18.63.84-.16,1.75-.24,2.37-.99.6-.71,1.24-1.39,2.01-2.25-.31-.64-.72-1.52-1.23-2.58-.72.4-1.33.74-2.16,1.2.18-1.49,1.48-1.6,2.2-2.48-.37-.06-.67-.1-1.02-.16-.63-.8-.34-2.21-1.67-2.51.03-.7.75-1.31.05-1.82-.49-.36-1.09-.58-1.62-.86.03-.22.05-.41.1-.77-.56.32-1.02.59-1.47.85,0-.1-.04-.23,0-.31.3-.47.75-.87.63-1.63h-1.57c-.7-.79.3-1.41.2-2.16-.17-.11-.31-.27-.47-.29-.5-.07-1-.09-1.64-.14-.33-.56-.67-1.23-1.1-1.84-.32-.45-.7-.89-1.15-1.19-1.15-.78-1.18-.75-.68-2.08.04-.12.1-.23.13-.35.01-.06-.02-.12-.06-.31h-1.68c-.25-.63-.52-1.32-.83-2.12-1.55-.23-2.19-1.42-2.59-2.82-.33-1.15-.66-2.3-1.04-3.6-.76.06-1.55.12-2.47.19-.1-.51-.21-1.04-.34-1.67-1.6-.08-1.62-1.77-2.55-2.74-1.11.13-1.89-.39-2.7-1.24-1-1.05-2.17-1.9-2.56-3.41-.05-.19-.36-.31-.61-.51-.33.41-.63.77-.98,1.21-1.18-1.29-1.55-3.04-3.01-4.03-.25.22-.46.35-.6.53-.16.19-.26.43-.29.49-1.14-.16-2.03-.23-2.88-.43-.59-.14-1.17-.41-1.71-.69-1.23-.63-1.49-1.78-1.41-3.06-.34-.04-.58-.07-.97-.12-.05-.57-.1-1.18-.17-1.95-.34.49-.44,1.25-1.35,1-.17-.43-.36-.93-.55-1.42-1.32-.23-.65,1.17-1.32,1.52-.53-.11-.74-1.11-1.54-.63-.04.03-.34-.31-.47-.5-.13-.2-.15-.6-.3-.65-1.63-.52-1.19-1.66-.86-2.77.09-.29.2-.58.31-.9-1.88.1-4.43-1.84-5.7-4.47-1.25.5-.21,2.39-1.73,2.86-.12-1.43.73-2.52.76-3.89-1.09-.59-1.76-1.65-2.23-2.82-.36-.89-.2-1.17.97-1.76.07.67.16,1.27.19,1.87.04.89.47,1.4,1.47,1.59.16-1.13.6-2.14,1.53-2.91,1.26.38,1.63,1.92,3.11,2.3-.06-.67-.11-1.19-.17-1.84.32-.07.65-.14,1.13-.25.66,2.33,1.42,4.52.36,6.91.65.5,1.17.91,2.01,1.56-.07-1.45-.12-2.53-.18-3.92.76.41,1.26.68,1.92,1.04-.25-1.02-.65-1.68-1.56-2.06-.68-.28-.65-.35-.69-1.32.71,0,1.19,1.12,2.12.36.06-1.1.63-2.26.25-3.56-.32-1.12-.5-2.28-.78-3.6,1.33.58.8,2,1.82,2.73,0-.49,0-.83,0-1.18.05-2.79.11-5.57.17-8.36.02-.73-.02-1.5.72-2.22.24.48.42.82.63,1.25.8-.9,1.22-1.9,1.3-3.08.22-3.03.5-6.03,1.28-9,.67-2.55.85-5.22,1.45-7.81.53-2.27.73-4.62,1.02-6.95.16-1.27.17-2.55-.9-3.33v-3.08c-.63-.88-2.02-1.39-.95-2.8.32.15.65.3,1.1.51.08-.51.11-.99.23-1.45.11-.4.32-.77.51-1.21.85.42.82,1.02.72,1.66-.16,1.06-.39,2.12-.45,3.18-.04.71.17,1.44.46,2.17.46-1.91,1.34-3.66,1.82-5.48.39-1.46,1.19-2.68,1.62-4.09.65-2.12,1.29-4.23,1.69-6.41.23-1.24.29-2.51.43-3.76-.46-.25-.85-.46-1.49-.79.67-.32,1.09-.52,1.55-.74.46.55.9,1.08,1.35,1.61,1.2-1.65,2.9-6.93,3.03-9.41,1.26-.16,1.64-1.09,1.71-2.26.07-1.22.44-2.36,1.05-3.42.28-.49.52-1.02.75-1.54,1.81-4.04,3.52-8.13,5.47-12.11.88-1.79,2.2-3.36,2.88-5.29.1-.28.38-.5.6-.73.84-.89,1.44-1.9,1.78-3.09.17-.6.51-1.15.75-1.67.51-.15.93-.27,1.36-.4.2-.76.39-1.49.6-2.31,1.32-.42,2.12-1.36,2.68-2.66.39-.9,1.12-1.65,1.68-2.44.43.09.72.16,1.01.22,1.95-1.75,3.99-3.37,5.78-5.24,1.47-1.52,2.65-3.33,3.69-5.24-.39.45-.81.87-1.17,1.34-.39.5-.73,1.03-1.15,1.64-1.23-.16-1.81.73-2.29,1.89-.34-1.53-.17-2.03.7-2.68.39-.29.75-.64,1.07-1.01.45-.53.87-1.04,1.6-1.26.45-.13.9-.46,1.23-.82,1.73-1.9,3.76-3.44,5.73-5.07,1.28-1.06,2.58-1.94,4.01-2.73,1.68-.91,3.08-2.19,4.48-3.47,2.24-2.05,4.63-3.92,7.23-5.5.89-.54,2.39-.86,3.65-.78.03.48.06.96.09,1.57.63-.36,1.2-.67,1.91-1.07v1.15c1.13.24,1.66-.82,2.51-1.08.81-.25,1.75.14,2.52-.58.5-.47,1.14-.78,1.76-1.19.39.2.75.51,1.11.52.31,0,.64-.32.93-.53,1-.71,2.16-.56,3.36-.61.02.16.07.32.05.48-.03.17-.13.34-.23.59,1.03.39,2.02.76,3.01,1.13.89.33,1.78.61,2.86-.18-.19,1.21.4,1.65,1.1,2.19,1.21.93,2.22,2.14,3.59,2.88.05.03.13.09.12.14-.08,1.21,1.22,1.44,1.65,2.33.42.86,1.47,1.45,1.8,2.32.47,1.26,2.07,1.5,2.29,2.92.05.3.79.5,1.28.78-.18,1.2.38,2.44-.14,3.67-.08.19,0,.5.1.71.3.67.38,1.3.09,2.01-.34.82-.16,1.69.29,2.37.59.91.7,1.86.74,2.89.03.68.23,1.35.33,2.03.05.3.12.63.06.91-.33,1.41-.02,2.75.35,4.1.13.48.07,1.01.18,1.49.19.84.44,1.66.68,2.48.23.79-.84,1.49-.13,2.34.15.18.09.62.02.91-.66,2.76-.46,5.57-.2,8.32.24,2.59-.08,5.04-.54,7.53-.15.8-.24,1.62-.34,2.43-.18,1.57-.3,3.15-.54,4.71-.33,2.06-.78,4.09-.84,6.2-.04,1.5-.4,3-.73,4.48-.54,2.42-1.01,4.82-.97,7.32.02,1.11-.25,2.26-.53,3.35-1.14,4.42-2.06,8.87-2.54,13.42-.2,1.92-.96,3.79-1.45,5.68-.29,1.1-.51,2.22-.83,3.31-.37,1.27-.84,2.51-1.24,3.77-.63,1.99-1.22,3.99-1.84,5.98-.36,1.14-.76,2.27-1.16,3.4-.23.66-.53,1.29-.74,1.95-.85,2.6-2.2,4.93-3.55,7.29-2.06,3.58-4.3,7-6.93,10.19-1.32,1.61-2.49,3.35-3.63,5.09-.34.52-.79.74-1.24,1.07-.71.5-1.51,1.06-1.91,1.79-1.14,2.09-2.84,3.63-4.58,5.18-2.26,2.01-4.48,4.09-6.61,6.24-1.99,2.02-2.89,4.55-3.04,7.38-.05.99-.38,1.97-.59,3,.18.02.41.05.64.08.01.11.07.28.03.31-1.13.93-1.55,2.15-1.37,3.56.19,1.43-.6,2.64-.78,4-.37,2.75-1.35,5.4-1.1,8.24.07.79-.32,1.6-.33,2.41-.01.72.11,1.41.08,2.16-.06,1.23-.44,2.32-.72,3.47-.19.78-.26,1.6-.33,2.4-.1,1.21.2,2.47-.88,3.51-.36.34-.24,1.18-.35,1.86.37.22.68.41,1.1.67.08.89.17,1.87.26,2.77-.94.6-1.16-.42-1.71-.51-.8.55-.61,1.44-.74,2.18-.99.4-1.92.77-2.9,1.16-.17,2.2-1.33,3.84-2.68,5.37-1.05,1.18-1.48,2.63-1.98,4.07-.18.53-.34,1.06-.51,1.61-1.74.33-1.56-1.21-2.2-2.03-.33-.09-.75-.19-1.24-.32.18-.7.36-1.36.53-2.02-.44-.51-.83-.99-1.7-.76.16.41.31.78.49,1.22-1.1.59-1.38-.55-2.24-.99.31.66.48,1.12.72,1.53,1.82,3.12,2.14,6.41,1.32,9.9-.56,2.37-1.36,4.61-2.77,6.62-.14.2-.25.44-.34.67-.04.11,0,.25,0,.47,1.16.35,2.11-.73,3.28-.53.14.45.27.9.44,1.43h1.74c-.03.28,0,.55-.08.6-.6.34-1.23.62-1.86.93-.04.23-.08.48-.12.72-.82.26-1.64.52-2.87.91.82.36,1.24.55,1.7.76v1.61c1.08.82,2.17-.05,3.51-.05-.39.56-.56.98-.87,1.21-.96.71-1.93,1.42-2.97,2-.8.44-1.57,1.15-1.42,1.85.23,1.08-.66,1.48-.84,2.24q-1.56.14-2.24-.74c.39-.08.74-.16,1.08-.23,0-.07.02-.14.02-.21-.86-.09-1.73-.19-2.67-.29.21-.36.45-.76.7-1.19-.28-.39-.58-.82-.99-1.4,1.72-.46,3.69.73,4.83-1.2-.58-.53-1.13-1.03-1.84-1.67-.8.13-1.72.31-2.65.42-1.47.17-1.95-.55-1.42-2.12-.47-.39-.96-.79-1.49-1.23.13-.43.26-.84.39-1.25-.44-.4-1.06-.73-1.27-1.23-.19-.46.06-1.1.13-1.82-.13-.17-.5-.44-.55-.76-.25-1.53-1.03-2.89-1.49-4.35-.72-2.31-.66-4.6-.71-6.93-.02-1.13-.02-2.28-.24-3.37-.34-1.72.21-3.26.71-4.81.43-1.32.92-2.62,1.43-4.05-.38-.19-.75-.37-1.19-.58.05-.65.09-1.33.15-2.16.74-.16,1.45-.32,2.28-.5-.19-1.07.45-1.83,1.11-2.57,1.05-.27,1.76-1.02,2.48-1.75-1,.34-1.87.87-2.47,1.77-.84.63-1.7,1.24-2.52,1.89-.77.62-1.51,1.29-2.42,2.07-.18-.43-.28-.67-.39-.92.81-.83,1.63-1.67,2.45-2.51-.68-1.16-1.76.1-2.41-.63-.08.69-.18,1.22-.18,1.75,0,.47.11.94.17,1.4Zm6.45-25.52v1.08q1.09-.36.94-1.56c-.34.18-.65.35-.97.51.01-.81.1-1.62.02-2.42-.08-.85-.25-1.71-.53-2.51-.09-.28-.61-.41-1.03-.67-.58,1.61.23,2.89.2,4.1.52.56.94,1.01,1.36,1.47Zm-6.68-19.23c-.59-.27-1.14-.49-1.5.18-.24.45-.1.84.5,1.06.83-.49,2.03-.63,2.06-2.02,0-.09-.11-.18-.25-.4-.26.38-.49.72-.81,1.18Zm-31.5-10.65c.59.84,1.06,1.51,1.68,2.39.38-1.35-.48-1.92-.83-2.76-.3.13-.51.23-.85.38Zm38.16,66.18q1.02.81,2.36.89c-.81-.56-1.29-1.36-2.36-.89Z"/>
            <path d="m343.43,552c-.71-.44-1.43-.89-2.14-1.33-.47-.71-.95-1.43-1.46-2.2.75-.58,1.48-1.14,2.28-1.75-.84-.77-1.73-.13-2.46-.46q.16-1.03,1.51-1.3c-.66-1.36-2.03-.69-3.2-1.13.36-.31.58-.59.86-.72.67-.31,1.37-.54,2.21-.86-.98-1.18-2.39-.22-3.33-1.15.38-.27.71-.49,1.12-.78-.3-.16-.51-.28-.81-.44-.76,1.06-1.51,2.1-2.26,3.14-.06-.05-.12-.09-.18-.14.58-1.83,1.17-3.66,1.77-5.56,1.54.22,3.04,1.06,4.61.25.33-.62-.02-1.12-.34-1.58-1.18-1.69-1.79-3.61-2.38-5.56-.84-2.78-.74-5.46.43-8.14.78-1.79,1.37-3.66,2.09-5.61-1.01-.27-1.66.39-2.42.51-.81.13-1.56.86-2.46.03-.22-.21-.95.13-1.45.21-.51.08-.89.02-1.35-.39-.71-.63-1.63-1.03-2.51-1.55.11-.32.23-.64.36-1.01-.65-.09-1.24-.17-2.07-.28.8-.58,1.38-.99,2.18-1.57-.67-.4-1.06-.75-1.5-.86-.72-.18-1.08-.66-1.27-1.28-.44-1.45-.86-2.91-1.22-4.38-.39-1.59-.71-3.21-1.05-4.81-.68-.28-1.32-.53-2.01-.82.26-.81,1.7-.7,1.31-1.94-.68-.23-1.42-.49-2.22-.76,1.25-1.44,2.64.09,3.94-.47.18-.76-.36-1.23-.82-1.72-1.29-1.42-2.33-3-2.9-4.85-.19-.6-.37-1.21-.51-1.82-.74-3.27-1.33-6.57-2.37-9.77-.39-1.22-.34-2.58-.46-3.54-1.03-1.77-1.91-3.3-2.79-4.82-.25-.43-.44-.98-.81-1.25-2.06-1.47-3.29-3.66-4.91-5.52-.54-.62-1.13-1.18-1.69-1.78-.34-.37-.76-.71-.96-1.15-.41-.93-1.07-1.51-1.98-1.93-.8-.37-1.55-.86-2.3-1.33-1.09-.68-1.15-.86-1-2.33-.48-.15-.97-.28-1.44-.46-.23-.09-.57-.24-.6-.41-.23-1.31-1.37-1.5-2.3-1.97-.43-.21-.79-.56-1.12-.8.13-1.28,1.28-.79,1.84-1.42-4.99-.32-7.57-3.58-9.7-7.84-1.13-.23-1.87-1.25-2.52-2.47-.44-.82-1.19-1.47-1.73-2.24-.33-.48-.53-1.05-.89-1.79-1.27-.63-1.35-.87-.6-2.35-2.24-2.29-4.08-4.84-5.27-7.78-.33-.82-.16-1.85-.23-2.97-.89-.52-1.43-1.41-1.53-2.66-.05-.73-.39-1.47-.71-2.15-1.48-3.19-2.27-6.57-2.91-10-.44-2.37-.94-4.72-1.85-6.96-.14-.35-.28-.71-.38-1.08-.72-2.56-1.42-5.12-2.13-7.68-.1-.37-.27-.72-.31-1.09-.44-4.37-2.09-8.47-2.93-12.74-.54-2.73-.96-5.47-1.41-8.22-.51-3.12-1-6.25-1.49-9.38-.2-1.24-.38-2.49-.56-3.74-.04-.25,0-.52-.09-.75-1.01-2.64-1.09-5.45-1.46-8.21-.12-.88-.11-1.77-.18-2.65-.14-1.7-.3-3.4-.44-5.1-.22-2.71-.63-5.43-.59-8.13.04-2.45.33-4.95.96-7.31.83-3.08,2.51-5.79,4.9-7.99.75-.69,1.47-1.4,2.25-2.04.43-.35.93-.77,1.44-.84.85-.12,1.34-.57,1.69-1.45,1.68.08,3.31.13,4.94.23,2.21.14,4.41.41,6.62.45,2.08.04,3.98.43,5.8,1.51,1.79,1.06,3.75,1.84,5.54,2.92,1.79,1.08,3.48,2.32,5.15,3.58.7.52,1.22,1.28,1.84,1.91.62.62,1.29,1.03,2.14.18,1.62,1.43,3.18,2.8,4.79,4.22.3-.08.66-.29.98-.23.34.06.7.31.95.57.97,1,1.98,1.98,2.82,3.07.33.43.29,1.15.43,1.79,5.39,4.26,10.85,8.57,16.31,12.88.3-.17.56-.31.89-.49.57.75,1.06,1.51,1,2.74-.82-.34-1.46-.62-2.48-1.04.95,1.18,1.56,2.11,2.78,2.37.97.21,1.58.93,1.72,1.83.13.78.59,1.22,1.05,1.72.6.65,1.2,1.31,1.77,1.99.24.28.52.61.59.95.33,1.64,1.42,2.8,2.4,4.04.42.54,1.03.96.94,1.79-.02.2.18.49.36.63,1.05.86,1.42,2.03,1.69,3.29.2.92.49,1.84.83,2.72.32.82.75,1.6,1.19,2.51-.69.76-.58,1.64-.26,2.57.21.6.37,1.22.45,1.84.14,1.12.51,2.07,1.57,2.65.21.11.46.32.52.53.38,1.42,1.64,2.21,2.32,3.49,2.21-.61,3.15,1.42,4.72,2.23.32-.27.64-.55,1.02-.87,1.02.88.98,2.68,2.89,2.98-.32-.7-.59-1.17-.75-1.67-.13-.4-.29-.91.22-1.19.51-.28.86.06,1.06.48.39.79.74,1.6,1.07,2.42.33.82.59,1.67.93,2.49,1.1,2.69,2.2,5.39,3.35,8.06.37.86.35,1.58-.37,2.27.62.99,1.36,1.9,1.09,3.14.78,1.79,1.36,3.71,2.39,5.35,1.05,1.66,1.67,3.37,1.94,5.27.15,1.05.35,2.07.82,3.08.54,1.18.75,2.52,1.1,3.8.24-.15.67-.55,1.05-.01.39.56.77,1.15,1.01,1.79.36.94.6,1.93.88,2.86.45.23.83.43,1.04.54.31,1.08.48,2.01.84,2.87.84,1.99.6,3.78-.7,5.35.43,1.64.85,3.21,1.29,4.9.25-.21.54-.45.85-.71.63.39.59.99.59,1.53,0,1.4.05,2.77.6,4.1.32.78.3,1.74-.27,2.35-.57.62-.53,1.25-.51,1.93.02.69.2,1.38.21,2.08.01,1.19-.03,2.39-.1,3.58-.05.82-.27,1.63-.27,2.45,0,1.26-.16,2.39-1.31,3.18-.33.22-.53.64-.91,1.13-.44-.67-.76-1.17-1.21-1.86-.35.74-.53,1.44-.56,2.12-.11,2.36-1.64,3.54-3.58,4.58-.44-.53-.82-1-1.25-1.52-.9,0-1.51.42-1.82,1.31-.36,1-1.06,1.86-1.14,2.98-.01.19-.3.36-.43.5-.94-.13-.58-.89-.78-1.36-.13.09-.26.14-.32.24-.24.37-.44.77-.69,1.14-.76,1.09-1.62,1.06-2.34-.1-.3-.48-.54-1.01-.71-1.54-.34-1.09-.58-2.2-.93-3.29-.23-.7-.18-1.29.08-2,.34-.92.42-1.94.63-3.06.48.05.98.1,1.51.16.15-.7-.12-1.27-.54-1.75-1.01-1.16-1.33-2.6-1.54-4.02-.31-2.14-1.06-4.06-2.51-5.63-1.04-1.12-1.36-2.55-2.01-3.84-.27-.54-.05-.87.77-1.6-1.79-1.49-2.83-3.33-2.4-5.88-1.32-.9-2.47-2.08-2.63-3.97-.04-.44-.5-.86-.8-1.26-.53-.71-.98-1.44-.95-2.34.52-.45.85-.28,1.13.17.44.69.91,1.37,1.33,2.08,1.44,2.48,3.57,4.21,6.26,5.86-.26-.61-.38-.98-.57-1.31-.64-1.09-1.32-2.17-1.95-3.26-.86-1.49-1.81-2.89-3.07-4.08-.77-.72-1.62-1.5-1.32-2.9.58-.41,1.25-.9,2.04-1.47-.22-.24-.49-.53-.81-.88.86-1.29-.43-2.11-.77-3.17-.28-.88-1.05-.99-1.84-1.19-1.08.97.32,2.71-1.18,3.49.3.73.57,1.37.84,2.01.46,1.13.41,1.26-.71,1.88-.11.06-.22.13-.32.2-.05.04-.08.09-.29.34.11.5.23,1.16.4,1.8.15.55.43,1.07.5,1.63.05.37-.16.77-.31,1.39-.68-.52-1.15-.88-1.71-1.3-.8,1.09-.34,2.12-.12,3.12.07.3.27.57.42.85q.67,1.29-.12,2.57c.46.97.94,1.98,1.46,3.08-1.47.54-2.11-1.07-3.43-1.06.11.33.16.55.26.75.95,1.86,1.89,3.73,2.88,5.57.39.72.91,1.37,1.36,2.05.24.37.74.81.67,1.1-.26.98.55,1.48.99,2.38-.48.06-.84.23-1.07.12-1.06-.51-2.07-1.1-3.23-1.41.32.18.62.42.96.51.55.13.77.46.65.96-.13.56-.65.61-1.08.51-1.23-.29-2.44-.65-3.65-1-.28-.08-.56-.2-1.05-.37.51,1.54,1.77,2.03,2.65,2.87.88.84,2.31,1.02,3,2.38-1.42.49-2.56-.12-3.98-.49,1.05,1.49,3.09,1.05,3.91,2.67-.98.26-1.93.72-2.87.7-1.04-.02-2.08-.48-3.23-.78-.14.46-.27.91-.4,1.36.94,1.46,2.85,2.19,3.11,4.11.55.37,1.25.6,1.49,1.07.29.56.17,1.32.23,1.88-2.04,1.7-4.02,1.91-6.03.58,1.6,2.83,3.21,5.67,4.81,8.52.15.27.23.59.3.89.12.56.14,1.14.32,1.68.18.53.5,1.01.83,1.65-.44.35-.86.68-1.37,1.08.04.33.1.75.16,1.27-.92,1.16-2.34,1.57-3.69,2.07-.27.1-.65.05-.92-.07-1.48-.6-2.89-1.3-3.63-2.85-.82-1.72-1.82-3.33-3.13-4.74-.28-.3-.47-.76-.56-1.17-.64-3.13-2.01-5.85-4.4-7.92.1-1.99.09-2.01-1.54-3.43-.39.54-.79,1.08-1.2,1.65h-3.08c.54.52,1.07,1.03,1.69,1.61-.98.97.13,1.81.16,2.75.02.52.33.91-.01,1.53-.4.74-.2,1.6.51,2.23.38.33.76.69,1.06,1.09.25.34.54.79.52,1.17-.08,1.13.52,1.9,1.09,2.75.62.93,1.12,1.94,1.87,3.27-.73-.15-1.14-.12-1.33-.3-.44-.44-.78-.98-1.28-1.64-.27.62-.47,1.1-.69,1.59.41.85,1.07,1.67,1.15,2.54.08.88-.42,1.81-.67,2.74.82.84,1.7,1.73,2.57,2.62.86.87,1.71,1.74,2.61,2.66-1.36.82-1.99-1.21-3.2-.61-.37.78.57,1.85-.69,2.46-.47-.19-1.03-.41-1.76-.69.08,1.64,1.3,2.17,2.33,3.23.11-.95.18-1.66.28-2.56.5.07,1.01.04,1.42.21,2.2.91,3.98,2.41,5.6,4.07-.45.73-.85,1.39-1.34,2.19.64.28,1.08.51,1.54.66,1.26.43,2.54.79,3.79,1.24.78.28,1.75.4,1.84,1.58.01.15.85.43.91.35.59-.74,1.14-.25,1.69-.02.8.33,1.5.92,2.55,1.01.12-1.27-1.23-1.77-1.33-2.81,1.33-1.16,2.82-1.43,4.76-.82.27-.59.54-1.2.85-1.89-.44-.69-.9-1.41-1.41-2.2q1,.08,3.09,2.13c.05-.52.1-.98.15-1.44.11-.03.21-.06.32-.1.25.39.62.76.72,1.18.59,2.58,1.81,5.02,1.77,7.75-.01.73-.08,1.46-.12,2.23.2-.02.48-.04.82-.07.71,1.45.95,2.99,1.13,4.58q-1.12-.23-1.6-2.8c-.37.5-.76.81-.86,1.19-.29,1.06-1.16,1.42-1.99,1.88-.41.23-.79.5-1.21.78-.22-.08-.5-.19-1-.38.67,1.49-.28,2.92.37,4.32.09.19-.31.61-.35.69.14,1.58.3,2.95.36,4.33.06,1.33,0,2.66.01,3.99.02,2.78-.49,5.41-2.02,7.78-.53.83-.78,1.7-.47,2.71.14.46.11.96.17,1.5-.95.26-2.06-.57-2.6.61.82.41,1.63.82,2.58,1.29-.35.57-.6.97-.85,1.38.16.31.32.63.5.98-.24.27-.41.62-.67.7-.65.21-.99.61-1.25,1.21-.13.3-.51.5-.79.74-.94.82-1.54,1.7-1.33,3.09.33,2.11-.44,3.25-2.36,3.92Zm14.48-112.6c-.1.07-.19.14-.29.21.15.35.23.74.45,1.03,1.33,1.73,2.1,3.73,2.94,5.71.55,1.28,1.08,2.56,1.67,3.82.26.57.62,1.09.97,1.61.09.13.3.18.5.29.42-.39.83-.76,1.34-1.23-.49-1.07-.94-2.1-1.43-3.11-.76-1.55-2-2.73-3.12-4.02-1.14-1.32-2.03-2.86-3.03-4.31Zm-8.07-45.83c.49-1.36.47-1.35-.52-2.14-.43-.35-.79-.79-1.17-1.2-.33-.35-.64-.71-.96-1.07.08.94.85,1.74.1,2.67-.05.06.03.24.08.36.45,1.17.9,2.35,1.38,3.52.06.14.28.22.44.34.26-.2.5-.39.75-.59.41.17.81.34,1.59.66-.73-1.11-1.22-1.83-1.69-2.55Zm-13.44,107.19c-.34.42-.22.84.15,1.13.34.26.78.39,1.18.56,1.84.79,3.69,1.57,5.54,2.35.34.15.69.28,1.27.5-1.74-2.26-4.17-3.58-8.14-4.55Zm16.65-86.39c-.25-.33-.43-.82-.77-.98-1.18-.58-1.99-1.49-2.58-2.54h-.98c.55,2.43,2.81,5.5,4.81,6.58q-1.46-2.15-.48-3.05Zm-5.96-28.86c.34.86.49,1.89,1.06,2.53.51.57.94,1.14,1.3,1.8.22.41.58.74,1.13,1.4-.71-2.53-1.3-4.64-1.93-6.89-.56.41-.99.73-1.57,1.15Zm4.34,22.05c.69-.57.5-.96.12-1.25-.87-.66-1.47-1.51-1.97-2.46-.14-.27-.47-.46-.71-.68-.48.56-.55,1.02-.14,1.46.88.96,1.77,1.91,2.71,2.93Zm-15.33,97.43c.02.13.03.25.05.38,1.81.12,3.61.17,5.44-.16-.62-.39-1.26-.87-1.89-.84-1.21.06-2.4.4-3.6.62Zm14.13-96.95c-.2,1.25-.36,2.23.76,2.9.38-.44.74-.85,1.15-1.33-.63-.52-1.2-.99-1.91-1.57Zm3.07-18.89c.45,1.47,1.1,2.18,2.6,2.51-.73-1.11-1.38-1.82-2.6-2.51Zm-3.1,115.34c0,1.07-1.06,1.77-.07,2.68q.91-1,.07-2.68Zm16.74-86.54c-.63-.74-.5-1.93-1.99-2.08.57.91.52,2.05,1.99,2.08Zm3.34,27.21c-.27-.73-.53-1.47-.89-2.43q-.12,1.52.89,2.43Zm4.33-15.44c0,.56,0,1.11,0,1.67,0,.09.12.17.25.33.51-.75.29-1.4-.26-2Zm-10.74-25.03c.1-.09.21-.18.31-.27-.41-.61-.82-1.22-1.23-1.83-.1.06-.19.13-.29.19.4.64.81,1.27,1.21,1.91Zm-64.83,28.57c0,.13-.02.26-.03.39.86-.05,1.73-.09,2.59-.14,0-.08,0-.17-.01-.25h-2.56Z"/>
            <path d="m458.52,776.55c-.51-.9-1.71-1.31-1.79-2.58-.01-.16-.68-.49-.88-.39-.64.3-.98-.07-1.29-.46-.39-.49-.64-1.1-1.03-1.59-.83-1.02-1.71-2.02-2.6-2.99-1.02-1.1-2.21-1.07-3.45-.42-.27.14-.5.36-.91.67-.45-.65-.87-1.24-1.31-1.87-.26.1-.54.2-.82.31-1.03-1.12-1.06-1.89-.08-3.3-.3-.73-.57-1.49-1.63-1.51-.25,0-.62-.27-.73-.51-.61-1.31-1.18-2.64-1.71-3.99-.1-.25.04-.59.09-1.05,1.47.82,2.38,1.79,2.21,3.43.92.09,1.61.97,2.54.42.66.37,1.31.74,2.03,1.14,1.39-1.15.23-2.36-.16-3.61q1.26.39,3.47,2.96c.93,1.09,2.15,1.99,2.6,3.6.09-.43.18-.86.28-1.33,1-.1,1.33.65,1.81,1.19.64.72,1.04.77,1.77.3.94-.6,1.61-.57,2.25.2.31.38.5.87.71,1.33.42.91.79,1.85,1.22,2.75.51,1.08.27,1.47-.96,1.46-.18,0-.37-.04-.5-.06-.48.6-.94,1.17-1.5,1.88-.09.98,1.36.61,1.63,1.58q.09,1.94-1.25,2.44Z"/>
            <path d="m419.18,556.51c1.11-.78,1-2.44,2.47-2.63,1.13.12,1.04,1.28,1.64,2.03.84-.92,1.62-1.78,2.4-2.63.1.05.21.1.31.14-.03.19-.04.39-.08.57-.05.18-.13.35-.23.59h1.13c-.02.23.04.45-.05.57-1.36,1.9-2.73,3.79-4.12,5.7-.92-.25-1.61-.37-1.96-1.36-.28-.77-1.02-1.36-1.64-2.13-1.2,1.41-.94,3.45-2.49,4.57-.48-.65-.91-1.24-1.32-1.81.09-.34.16-.63.25-.97-.25-.07-.43-.1-.6-.16-1.08-.37-1.27-.86-.69-1.8.93-1.49,1.86-2.97,2.88-4.61.2.26.54.51.53.74-.01.42-.19.86-.39,1.24-.31.61-.68,1.19-1.05,1.82,1.18-.78,1.92-1.72,2.64-3.5.48-1.17.84-2.38,1.28-3.57.16-.44.39-.86.75-1.24.09,2.9-1.13,5.54-1.67,8.44Z"/>
            <path d="m408.36,415.41c-.61.09-1.16.17-1.8.26-.11.44-.22.93-.35,1.41-.08.3-.22.59-.29.9-.34,1.32-1.27,2.3-1.95,3.43-.66,1.11-.99,2.41-1.49,3.73-.47-.16-.75-.25-1.01-.34.01-.2-.03-.38.04-.43.98-.91,1.18-2.15,1.16-3.35-.02-1.03.11-1.86,1.01-2.46.49-.33.64-.86.84-1.41.27-.72.33-1.51.97-2.18.41-.43.24-1.41.34-2.24h.95c.47-1.52.96-3.06,1.43-4.6.07-.24.11-.51.07-.75-.21-1.22.28-2.2.94-3.16.24-.35.39-.75.77-1.52.18.75.38,1.13.34,1.48-.3,2.32-.61,4.63-1,6.93-.24,1.42-.62,2.82-.96,4.3Z"/>
            <path d="m389.74,437.82c-.37-.23-.73-.45-1.27-.78-.22,2.44-1.52,4.44-2.31,6.73-.19-.16-.4-.24-.44-.37-.41-1.52-.93-3.02-1.14-4.57-.16-1.17-.51-2.05-1.61-2.53-.47-1.85-.83-3.66-.41-5.53.37.97.74,1.94,1.12,2.91.09.23.15.6.31.66,1.29.45,1.56,1.63,1.88,2.72,2.21-.38,1.16-2.45,2.04-3.62,1.61,1.11,1.84,2.7,1.8,4.41l.02-.04Z"/>
            <path d="m355.3,379.25c-1.3.17-2.19-.27-2.97-1.11-.43-.46-.95-.83-1.44-1.22-.83-.67-1.47-1.41-1.08-2.45-1-1.16-1.92-2.2-2.81-3.26-.35-.41-.32-.44.38-1.27,1.51,1.02,1.86,3.17,3.76,3.94.32-1.54-1.03-2.84-.57-4.54.32.24.62.35.74.57.66,1.22,1.29,2.45,1.89,3.7.43.89.67,1.8-.31,2.56.28.45.5.8.82,1.32.2-.55.33-.91.53-1.45.99.97,1.88,1.74,1.07,3.2Z"/>
            <path d="m426.1,713.45c.68-.18,1.15-.22,1.55-.43,1.12-.58,1.2-.6,2.63.02-.42,1.1-1.52.66-2.25,1.01-.77.38-1.55.75-2.42,1.18-.24-.47-.44-.77-.57-1.1-.14-.35-.12-.87-.37-1.05-1.52-1.15-1.37-2.95-1.87-4.5-.01-.04.05-.11.06-.13h2.62c.22.32.5.71.83,1.18.36-.19.72-.39,1.18-.63.65.49,1.69.5,1.9,1.57-.25.63-.79.81-1.34.95-.41.11-.95.08-1.21.33-.32.32-.42.88-.72,1.6Z"/>
            <path d="m410.93,551.42c-.22.32-.45.65-.84,1.22-.37-1-.64-1.73-.98-2.66.67-.04,1.2-.07,1.87-.12.12-.4.27-.93.48-1.64.54.06,1.12,0,1.59.2.49.21.88.66,1.46,1.12v4.49c-.51-.06-.84-.1-1.36-.17-.28.56-.63,1.21-.94,1.87-.27.57-.61.94-1.27.64.09-1.63.17-3.24.26-4.84-.09-.04-.17-.08-.26-.11Z"/>
            <path d="m336.91,599.1c-.83,1.37-1.54,2.55-2.92,3.14-.97-1.01-.76-2.26-.84-3.44-.54-.29-1.04-.55-1.64-.88.02-.45.04-.93.06-1.42.56-.21,1.03-.38,1.56-.57.07-.39.15-.81.24-1.28.93-.7,1.95-.67,3.06-.38.04.95-.5,1.53-1.08,2,.51.93,1.01,1.84,1.55,2.82Z"/>
            <path d="m452.77,635.3c-.26-.27-.57-.52-.77-.83-2.01-2.99-3.95-6.03-6.02-8.98-2.18-3.11-4.73-5.93-7.3-8.72-1.07-1.16-2.02-2.43-3.01-3.66-.14-.18-.18-.45-.37-.92.46.12.79.11.95.26.79.81,1.57,1.65,2.3,2.52,2.52,3,5.16,5.92,7.5,9.06,2.41,3.24,4.53,6.71,6.75,10.09.18.28.19.66.29,1-.1.06-.2.12-.3.19Z"/>
            <path d="m400.32,439.8c-.46-.09-.76-.16-1.07-.21-.04,0-.1.06-.24.16-.02.47-.05,1.02-.09,1.74-1.75-.9-1.34-2.79-2.43-4.04.9-.35,1.63-.63,2.4-.92.12-.63-.16-1.47.82-1.62.12-.02.23-.29.28-.46.33-1.26.64-2.53.99-3.95.74.94.47,2.08,1.05,3.07-1.39.61-1.28,1.72-1.08,2.86.2,1.16,0,2.24-.63,3.38Z"/>
            <path d="m448.62,644.2c-.77-2.19-1.46-4.42-2.33-6.57-.84-2.11-1.76-4.2-2.81-6.21-1.06-2.03-2.31-3.96-3.33-6.02,3.56,3.67,5.79,8.12,7.5,12.86,1.64,4.55,1.6,4.57.97,5.94Z"/>
            <path d="m438.49,623.32c-.38-.41-.8-.79-1.13-1.24-2.6-3.41-5.13-6.88-8.22-9.89-.51-.49-.85-1.16-1.39-1.92,1.01-.09,1.41.42,1.86.81.85.74,1.72,1.46,2.55,2.23.37.34.7.72.99,1.13,1.41,2.01,2.79,4.05,4.2,6.06.57.82,1.2,1.59,1.16,2.82Z"/>
            <path d="m414.44,662.26c.87-.09,1.73-.19,2.74-.29.32.57.64,1.16.96,1.73-.98.8-1.84,1.5-2.65,2.15v1.74c-.84-.36-1.5-.65-2.12-.92.15-1.59-.19-3.22,1.11-4.44l-.03.03Z"/>
            <path d="m440.88,570.53c.09-.31.1-.52.16-.53,4.57-.97,9.13-1.94,13.7-2.87.84-.17,1.71-.17,2.6-.06-1.68.95-3.58.93-5.37,1.37-1.84.46-3.7.84-5.57,1.15-1.81.31-3.56,1.1-5.52.94Z"/>
            <path d="m432.15,581.18c5.24-.7,10.16-.76,15.06-.52.05.27.08.33.07.39,0,.04-.07.1-.11.11-.44.05-.87.11-1.31.13-4.35.16-8.7.31-13.06.44-.09,0-.18-.15-.66-.56Z"/>
            <path d="m569.22,784.12c.68-.45,1.45-.96,2.16-1.42,1.46.62.71,1.46.46,2.25-.49.24-.98.47-1.69.82.67.56,1.18.99,1.67,1.41.25.84.5,1.67.8,2.64-.12.16-.34.45-.63.84-.58-.53-1.09-.98-1.69-1.52.39-.94.12-1.76-.48-2.56-.49-.66-.84-1.42-.6-2.46Z"/>
            <path d="m458.19,560.55c-.36.19-.69.44-1.07.56-5.14,1.65-10.29,3.28-15.59,4.64.23-.21.44-.51.71-.61,2.5-.9,4.99-1.82,7.52-2.61,2.41-.76,4.86-1.38,7.3-2.06.34-.09.7-.12,1.05-.17.03.08.05.16.08.25Z"/>
            <path d="m444.8,562.68c4.1-2.16,11.7-4.31,13.85-4.04-4.47,1.4-8.53,2.68-12.6,3.93-.39.12-.84.08-1.26.11Z"/>
            <path d="m533.61,673.89c-.78-1.43.84-1.85,1.07-2.86.91.5,1.69.92,2.51,1.37.05,2.27-1.38,2.64-3.58,1.49Z"/>
            <path d="m440.27,566.75c-.82.87-1.6,1.67-2.97,1.67-.72,0-1.44.37-2.16.6-.71.22-1.4.47-2.55.86.45-.62.58-1,.82-1.11,1.89-.85,3.79-1.66,5.71-2.44.39-.16.87-.2,1.15.42Z"/>
            <path d="m437.23,563.17c-2.83,2.44-5.69,4.11-8.64,5.64.74-1.29,6.45-4.96,8.64-5.64Z"/>
            <path d="m427.34,788.58c.39-.12.57-.23.74-.22,1.11.11,2.48,2.78,1.93,3.75-.26.46-.99.54-1.27.07-.64-1.08-1.16-2.21-1.41-3.6Z"/>
            <path d="m432.48,556.15c-.45.39-.92.77-1.35,1.18-1.19,1.12-2.39,2.24-3.55,3.4-.51.51-.95,1.02-1.85.49.18-.35.27-.74.51-.98,1.8-1.75,3.9-3.09,6.25-4.09Z"/>
            <path d="m428.4,582.98c.5-.21.77-.43,1.03-.42,2.67.07,5.36.07,7.98.85-1.46,0-2.92.05-4.37-.01-1.46-.07-2.97.32-4.64-.42Z"/>
            <path d="m425.71,575.18c2.5-.98,5.06-1.72,7.84-1.76-.28.16-.54.38-.85.48-1.91.61-3.82,1.21-5.75,1.76-.37.1-.8-.04-1.21-.07-.01-.14-.02-.27-.04-.41Z"/>
            <path d="m440.25,762.42c1.39.55,1.32,1.9,2,2.71q-.58.85-1.71.97c-.32-1.16-1.82-2.18-.29-3.68Z"/>
            <path d="m336.42,606.06c-.52.36-1.03.72-1.55,1.07-.5.19-1,.38-1.7.65.22-2.1,1.74-2.66,3.05-3.52.55.61.28,1.22.2,1.8Z"/>
            <path d="m481.54,791.15c.12-.73.58-.88,1-.72,1.46.57,2.9,1.22,4.33,1.87.12.06.15.31.27.57-.23.13-.47.37-.63.33-1.79-.41-3.34-1.37-4.97-2.06Z"/>
            <path d="m430.69,664.29c-.78-.02-1.16-.44-1.15-1.07.02-1.06.31-2.07.73-3.43.41.57.68.78.71,1.02.12,1.17.36,2.37-.28,3.47Z"/>
            <path d="m338.37,495.28c-1.73,0-2.53-1.16-3.42-2.18-.31-.36-.79-.69-.22-1.36,1.43.91,2.94,1.66,3.64,3.54Z"/>
            <path d="m426.96,591.79c1.43.25,2.59.43,3.74.67.64.13.95.56.81,1.24-.96.09-3.37-.35-3.93-.79-.24-.19-.32-.57-.61-1.12Z"/>
            <path d="m325.04,338.74c2.48.73,3.52,1.39,5.46,4.36-.7-.13-3.32-2.19-5.46-4.36Z"/>
            <path d="m442.23,787.02c-.24-.63-.45-1.27-.72-1.88-.3-.66-.46-1.27.24-1.96.71,1.01,1.37,1.95,1.99,2.83-.19,1.01-.76,1.16-1.54.98l.03.03Z"/>
            <path d="m445.67,790.06c-.38-.41-.79-.8-1.15-1.24-.73-.89-.69-1.31.23-2.51,1.41.72,1.04,2.24,1.65,3.36-.33.16-.55.26-.77.36l.04.02Z"/>
            <path d="m436.99,565.12c1.06-.76,5.77-2.3,7.02-2.36-.08.18-.1.41-.21.47-1.88.93-5.43,1.94-6.81,1.89Z"/>
            <path d="m418.29,549.97c-.62.73-1.2,1.41-1.82,2.14-.65-1.14-.62-2.33-.04-3.03.32-.39.96-.47,1.32-.1.24.25.35.62.55.99Z"/>
            <path d="m426.14,664.45c-1.04-1.78-.98-2.27.3-3.34.68.32.89.94,1.11,1.7-.41.48-.84.98-1.4,1.64Z"/>
            <path d="m332.68,673.96c.57-.71,1.09-1.36,1.77-2.21.29.72.47,1.17.65,1.6-.33.61-.62,1.15-.97,1.79-.69-.19-1.26-.42-1.45-1.18Z"/>
            <path d="m403.98,693.5q-.27-.99.37-3.28c1.69.95,1.62,1.86-.37,3.28Z"/>
            <path d="m427.41,590.57c-1.15.61-1.86.31-2.53-.03-.66-.35-1.63-.11-2.21-1.21,1.71.1,3.18.15,4.74,1.24Z"/>
            <path d="m337.82,535.71c-.73-.35-1.05-1.09-.84-1.56.39-.89.07-1.56-.2-2.31-.02-.07.11-.19.25-.41,1.26,1.26,1.52,2.62.79,4.29Z"/>
            <path d="m407.81,588.37c.68-1.13,1.38-1.14,3.37-.17-1.04.69-1.53.72-3.37.17Z"/>
            <path d="m417.43,717.4c1.38,1.11.55,2.31,1.4,3.46-.8-.13-1.22-.08-1.44-.26-.24-.2-.43-.64-.41-.95.05-.65.25-1.29.45-2.24Z"/>
            <path d="m407.6,684.84c-.25.44-.68.86-.6,1.14.1.38.56.67.13,1.26-.83.1-1.49-.16-1.82-1.22.58-.58.93-1.56,2.3-1.18Z"/>
            <path d="m438.79,662.76c1.49.97,1.57,1.86.33,3.37-.7-1.1-.74-2.17-.33-3.37Z"/>
            <path d="m573.35,792.07c-.3,1.15-.56,2.15-.85,3.26-.88-.81-1-1.77-.68-2.77.23-.71.77-.94,1.53-.5Z"/>
            <path d="m437.35,669.03c-.42.31-.67.6-.98.69-.26.07-.69,0-.86-.17-.37-.39-.66-.88-.9-1.37-.07-.13.15-.41.31-.79.79.54,1.48,1,2.43,1.65Z"/>
            <path d="m438.07,661.6c-.65-.51-1.12-.87-1.55-1.21.18-.83.41-1.41,1.26-1.2.71.17.79.67.29,2.41Z"/>
            <path d="m404.54,567.87c.11,1.27-.44,1.91-1.19,2.35-.22.13-.8,0-.94-.21-.14-.21-.05-.79.14-.95.51-.42,1.14-.7,1.99-1.19Z"/>
            <path d="m449.17,646.07c.76,1.74,1.05,3.5.99,5.41-.57-1.22-.98-3.27-.99-5.41Z"/>
            <path d="m331.15,603.28c.4-.73.8-1.47,1.32-2.41.29.64.49,1.06.66,1.42q-1.11,1.63-1.98.99Z"/>
            <path d="m426.89,682.63c.42-.62.67-1.13,1.06-1.5.33-.31.89-.38,1.16.08.13.23.02.74-.16.99-.44.61-1.06.85-2.06.43Z"/>
            <path d="m419.03,708.58c-.23-.53-.46-1.06-.68-1.58,1.07-.56,1.39-.52,1.7.16.3.66.13.92-1.02,1.42Z"/>
            <path d="m356.51,550.16c-.89-1.22-1.79-2.42-2.67-3.65-.13-.18-.13-.44-.32-1.1,1.57,1.53,2.39,3.04,3.25,4.51-.09.08-.18.16-.27.24Z"/>
            <path d="m380.84,560.49c1.43.25,2.43,1,3.4,2.5-1.78-.44-2.46-1.66-3.4-2.5Z"/>
            <path d="m389.72,437.85c.22-.36.44-.73.67-1.12q.76.89-.16,2.33c-.7-.21-.39-.82-.49-1.25l-.02.04Z"/>
            <path d="m426.61,651.99c.08,1.17.27,1.95-.43,2.6q-.73-.89.43-2.6Z"/>
            <path d="m574.39,799.65c-.81-.9-1.41-1.63-1.33-2.96.9.86,1.52,1.58,1.33,2.96Z"/>
            <path d="m571.38,782.36c-.49-1.08-.83-1.82-1.27-2.79q1.94,1.25,1.27,2.79Z"/>
            <path d="m268.42,755.16c.42-1,.7-1.65,1.04-2.44.5,1.35.46,1.45-1.04,2.44Z"/>
            <path d="m401.24,428.43c-.28-.69-.99-1.25-.79-2.26,1.01.57,1.04,1.37.79,2.26Z"/>
            <path d="m339.38,560.42c-.64-.25-1.29-.51-2.2-.87q1.26-.26,2.2.87Z"/>
            <path d="m350.67,541.06c1.06.16.98,1.08,1.47,1.97-1.08-.45-1.24-1.23-1.47-1.97Z"/>
            <path d="m457.66,516.76c.1.67.76,1.45-.34,1.9-.16-.91-.17-.92.34-1.9Z"/>
            <path d="m460.05,513.1c-.48.4-.97.8-1.56,1.29.01-1.15,0-1.16,1.56-1.29Z"/>
            <path d="m381.42,427.31c.2.59.41,1.17.75,2.16-.99-.75-1.1-1.37-.75-2.16Z"/>
            <path d="m450.55,653.34v2.62c-.49-.84-.34-1.72,0-2.62Z"/>
            <path d="m334.17,755.87q-1.04,1.32-2.35.28c.49-.73.98-1.47,1.5-2.25.95.13,1.36.62,1.28,1.53-.14.15-.28.3-.42.44Z"/>
            <path d="m365.67,715.93c1.95.62,2.24,1.17,1.57,2.74-.12.29-.28.57-.44.84-.59,1.01-1.2,2.02-1.85,3.13-.47.15-.93-.12-1.04-.66-.12-.6-.25-1.4.04-1.85.71-1.1.99-2.28,1.25-3.51.05-.22.27-.4.48-.68Z"/>
            <path d="m359.53,700.79c.77,1.51.59,1.95-1.29,3.17-1.4-1.01-.64-2.36,1.29-3.17Z"/>
            <path d="m343.98,702.98c.62-.49,1.05-.84,1.48-1.18.93.2,1.1.96,1.51,1.53-.6.94-1.43.81-2.36.81-.17-.31-.37-.67-.64-1.15Z"/>
            <path d="m372.79,693.35c1.13.09,1.29,1.02,1.65,1.71-.36.77-.96.79-1.64.72-.84-.79-.68-1.58-.01-2.43Z"/>
            <path d="m314.37,768.9c-.41-.51-.72-.9-1.05-1.31.14-.2.22-.41.35-.47,1.08-.48,1.8-1.3,2.46-2.26.45-.65,1.1-1.21,1.76-1.64.54-.35,1.21.22,1.01.84-.17.53-.48,1.02-.79,1.49-.48.72-.92,1.51-1.55,2.09-.57.52-1.36.8-2.2,1.26Z"/>
            <path d="m337.87,748.9c-.29,1.24-.49,2.28-.79,3.3-.09.31-.4.67-.7.79-.36.15-.89.22-1.22.07-.54-.25-.48-.86-.28-1.33.44-1.03.91-2.05,1.44-3.04.14-.27.62-.61.82-.55.32.11.53.52.74.76Z"/>
            <path d="m349.07,761.32c.16-.9.22-1.57.41-2.2.1-.31.42-.68.7-.75.3-.07.77.1,1,.33.53.53.29,1.17.04,1.77-.25.58-.46,1.24-1.27,1.19-.28-.02-.56-.21-.88-.35Z"/>
            <path d="m338.39,777.51c.08-1.1.17-2.21.25-3.32,1.31.24,1.62.6,1.47,1.74-.06.47-.24,1.01-.56,1.32-.24.24-.78.17-1.19.23,0,0,.03.03.03.03Z"/>
            <path d="m419.77,756.58c1.51.72,1.79,1.22,1.29,2.39-.25.59-.68.89-1.48.68-.63-1.04-.45-2.07.23-3.09l-.04.02Z"/>
          </g>
        </g>
      </g>
    </g>
  </g>
</svg>